<mxfile host="app.diagrams.net" agent="Mozilla/5.0 (Windows NT 10.0; Win64; x64) AppleWebKit/537.36 (KHTML, like Gecko) Chrome/127.0.0.0 Safari/537.36" version="24.7.6">
  <diagram id="C5RBs43oDa-KdzZeNtuy" name="Page-1">
    <mxGraphModel grid="1" page="1" gridSize="10" guides="1" tooltips="1" connect="1" arrows="1" fold="1" pageScale="1" pageWidth="1200" pageHeight="1169" math="0" shadow="0">
      <root>
        <mxCell id="WIyWlLk6GJQsqaUBKTNV-0" />
        <mxCell id="WIyWlLk6GJQsqaUBKTNV-1" parent="WIyWlLk6GJQsqaUBKTNV-0" />
        <mxCell id="UwYnIVmGFYntGTS2J9TL-0" value="Roles" style="rounded=0;whiteSpace=wrap;html=1;" vertex="1" parent="WIyWlLk6GJQsqaUBKTNV-1">
          <mxGeometry x="-377" y="525" width="120" height="60" as="geometry" />
        </mxCell>
        <mxCell id="UwYnIVmGFYntGTS2J9TL-1" value="user" style="rounded=0;whiteSpace=wrap;html=1;" vertex="1" parent="WIyWlLk6GJQsqaUBKTNV-1">
          <mxGeometry x="13" y="525" width="120" height="60" as="geometry" />
        </mxCell>
        <mxCell id="jJb1c6qj5qtRXKOhrBhQ-0" value="id" style="ellipse;whiteSpace=wrap;html=1;rounded=0;" vertex="1" parent="WIyWlLk6GJQsqaUBKTNV-1">
          <mxGeometry x="-137" y="450" width="91" height="50" as="geometry" />
        </mxCell>
        <mxCell id="jJb1c6qj5qtRXKOhrBhQ-1" value="username" style="ellipse;whiteSpace=wrap;html=1;rounded=0;" vertex="1" parent="WIyWlLk6GJQsqaUBKTNV-1">
          <mxGeometry x="-137" y="664" width="91" height="50" as="geometry" />
        </mxCell>
        <mxCell id="jJb1c6qj5qtRXKOhrBhQ-2" value="password" style="ellipse;whiteSpace=wrap;html=1;rounded=0;" vertex="1" parent="WIyWlLk6GJQsqaUBKTNV-1">
          <mxGeometry x="-53" y="721" width="91" height="50" as="geometry" />
        </mxCell>
        <mxCell id="jJb1c6qj5qtRXKOhrBhQ-3" value="role_id" style="ellipse;whiteSpace=wrap;html=1;rounded=0;" vertex="1" parent="WIyWlLk6GJQsqaUBKTNV-1">
          <mxGeometry x="142" y="664" width="91" height="46" as="geometry" />
        </mxCell>
        <mxCell id="jJb1c6qj5qtRXKOhrBhQ-4" value="" style="rhombus;whiteSpace=wrap;html=1;rounded=0;" vertex="1" parent="WIyWlLk6GJQsqaUBKTNV-1">
          <mxGeometry x="263" y="168" width="80" height="80" as="geometry" />
        </mxCell>
        <mxCell id="jJb1c6qj5qtRXKOhrBhQ-5" value="Artist" style="rounded=0;whiteSpace=wrap;html=1;" vertex="1" parent="WIyWlLk6GJQsqaUBKTNV-1">
          <mxGeometry x="447" y="178.5" width="120" height="60" as="geometry" />
        </mxCell>
        <mxCell id="jJb1c6qj5qtRXKOhrBhQ-11" value="&lt;span style=&quot;font-family: Arial; font-size: 13px; text-align: left; white-space-collapse: preserve; background-color: rgb(255, 255, 255);&quot;&gt;id&lt;/span&gt;" style="ellipse;whiteSpace=wrap;html=1;rounded=0;" vertex="1" parent="WIyWlLk6GJQsqaUBKTNV-1">
          <mxGeometry x="472" y="320" width="70" height="40" as="geometry" />
        </mxCell>
        <mxCell id="jJb1c6qj5qtRXKOhrBhQ-12" value="&lt;span style=&quot;font-family: Arial; font-size: 13px; text-align: left; white-space-collapse: preserve; background-color: rgb(255, 255, 255);&quot;&gt;first_name&lt;/span&gt;" style="ellipse;whiteSpace=wrap;html=1;rounded=0;" vertex="1" parent="WIyWlLk6GJQsqaUBKTNV-1">
          <mxGeometry x="-107" y="390" width="67" height="39" as="geometry" />
        </mxCell>
        <mxCell id="jJb1c6qj5qtRXKOhrBhQ-13" value="&lt;div style=&quot;text-align: left;&quot;&gt;&lt;font face=&quot;Arial&quot;&gt;&lt;span style=&quot;font-size: 13px; white-space-collapse: preserve; background-color: rgb(255, 255, 255);&quot;&gt;last_name&lt;/span&gt;&lt;/font&gt;&lt;/div&gt;" style="ellipse;whiteSpace=wrap;html=1;rounded=0;" vertex="1" parent="WIyWlLk6GJQsqaUBKTNV-1">
          <mxGeometry x="-46" y="340" width="70" height="40" as="geometry" />
        </mxCell>
        <mxCell id="jJb1c6qj5qtRXKOhrBhQ-15" value="&lt;span style=&quot;font-family: Arial; font-size: 13px; text-align: left; white-space-collapse: preserve; background-color: rgb(255, 255, 255);&quot;&gt;email id&lt;/span&gt;" style="ellipse;whiteSpace=wrap;html=1;rounded=0;" vertex="1" parent="WIyWlLk6GJQsqaUBKTNV-1">
          <mxGeometry x="63" y="340" width="70" height="40" as="geometry" />
        </mxCell>
        <mxCell id="jJb1c6qj5qtRXKOhrBhQ-16" value="&lt;div style=&quot;text-align: left;&quot;&gt;&lt;font face=&quot;Arial&quot;&gt;&lt;span style=&quot;font-size: 13px; white-space-collapse: preserve; background-color: rgb(255, 255, 255);&quot;&gt;area_id&lt;/span&gt;&lt;/font&gt;&lt;/div&gt;" style="ellipse;whiteSpace=wrap;html=1;rounded=0;" vertex="1" parent="WIyWlLk6GJQsqaUBKTNV-1">
          <mxGeometry x="-147" y="599" width="70" height="40" as="geometry" />
        </mxCell>
        <mxCell id="jJb1c6qj5qtRXKOhrBhQ-17" value="&lt;span style=&quot;font-family: Arial; font-size: 13px; text-align: left; white-space-collapse: preserve; background-color: rgb(255, 255, 255);&quot;&gt;contact&lt;/span&gt;" style="ellipse;whiteSpace=wrap;html=1;rounded=0;" vertex="1" parent="WIyWlLk6GJQsqaUBKTNV-1">
          <mxGeometry x="136.5" y="384" width="70" height="40" as="geometry" />
        </mxCell>
        <mxCell id="jJb1c6qj5qtRXKOhrBhQ-19" value="&lt;div style=&quot;text-align: left;&quot;&gt;&lt;span style=&quot;color: rgba(0, 0, 0, 0); font-family: monospace; font-size: 0px; text-wrap: nowrap;&quot;&gt;%3CmxGraphModel%3E%3Croot%3E%3CmxCell%20id%3D%220%22%2F%3E%3CmxCell%20id%3D%221%22%20parent%3D%220%22%2F%3E%3CmxCell%20id%3D%222%22%20value%3D%22%26lt%3Bspan%20style%3D%26quot%3Bfont-family%3A%20Arial%3B%20font-size%3A%2013px%3B%20text-align%3A%20left%3B%20white-space-collapse%3A%20preserve%3B%20background-color%3A%20rgb(255%2C%20255%2C%20255)%3B%26quot%3B%26gt%3Btotal%20post%26lt%3B%2Fspan%26gt%3B%22%20style%3D%22ellipse%3BwhiteSpace%3Dwrap%3Bhtml%3D1%3B%22%20vertex%3D%221%22%20parent%3D%221%22%3E%3CmxGeometry%20x%3D%2260%22%20y%3D%22555%22%20width%3D%2270%22%20height%3D%2240%22%20as%3D%22geometry%22%2F%3E%3C%2FmxCell%3E%3C%2Froot%3E%3C%2FmxGraphModel%3E&lt;/span&gt;&lt;span style=&quot;background-color: rgb(255, 255, 255); font-family: Arial; font-size: 13px; white-space-collapse: preserve;&quot;&gt;profile_photo&lt;/span&gt;&lt;br&gt;&lt;/div&gt;" style="ellipse;whiteSpace=wrap;html=1;rounded=0;" vertex="1" parent="WIyWlLk6GJQsqaUBKTNV-1">
          <mxGeometry x="156" y="450" width="85" height="40" as="geometry" />
        </mxCell>
        <mxCell id="jJb1c6qj5qtRXKOhrBhQ-21" value="&lt;span style=&quot;font-family: Arial; font-size: 13px; text-align: left; white-space-collapse: preserve; background-color: rgb(255, 255, 255);&quot;&gt;art_id&lt;/span&gt;" style="ellipse;whiteSpace=wrap;html=1;rounded=0;" vertex="1" parent="WIyWlLk6GJQsqaUBKTNV-1">
          <mxGeometry x="742" y="320" width="70" height="40" as="geometry" />
        </mxCell>
        <mxCell id="jJb1c6qj5qtRXKOhrBhQ-23" value="" style="rhombus;whiteSpace=wrap;html=1;rounded=0;" vertex="1" parent="WIyWlLk6GJQsqaUBKTNV-1">
          <mxGeometry x="-217" y="515" width="80" height="80" as="geometry" />
        </mxCell>
        <mxCell id="jJb1c6qj5qtRXKOhrBhQ-47" value="Product" style="rounded=0;whiteSpace=wrap;html=1;" vertex="1" parent="WIyWlLk6GJQsqaUBKTNV-1">
          <mxGeometry x="-5" y="1470" width="120" height="60" as="geometry" />
        </mxCell>
        <mxCell id="jJb1c6qj5qtRXKOhrBhQ-49" value="&lt;div style=&quot;text-align: left;&quot;&gt;&lt;font face=&quot;Arial&quot;&gt;&lt;span style=&quot;font-size: 13px; white-space-collapse: preserve; background-color: rgb(255, 255, 255);&quot;&gt;description&lt;/span&gt;&lt;/font&gt;&lt;/div&gt;" style="ellipse;whiteSpace=wrap;html=1;rounded=0;" vertex="1" parent="WIyWlLk6GJQsqaUBKTNV-1">
          <mxGeometry x="-314.5" y="1464" width="78" height="40" as="geometry" />
        </mxCell>
        <mxCell id="jJb1c6qj5qtRXKOhrBhQ-50" value="&lt;div style=&quot;text-align: left;&quot;&gt;&lt;span style=&quot;background-color: initial; font-size: 13.3333px;&quot;&gt;&lt;font face=&quot;Arial&quot;&gt;p_name&lt;/font&gt;&lt;/span&gt;&lt;/div&gt;" style="ellipse;whiteSpace=wrap;html=1;rounded=0;" vertex="1" parent="WIyWlLk6GJQsqaUBKTNV-1">
          <mxGeometry x="-225" y="1354" width="78" height="40" as="geometry" />
        </mxCell>
        <mxCell id="jJb1c6qj5qtRXKOhrBhQ-51" value="&lt;div style=&quot;text-align: left;&quot;&gt;&lt;font face=&quot;Arial&quot;&gt;&lt;span style=&quot;font-size: 13px; white-space-collapse: preserve; background-color: rgb(255, 255, 255);&quot;&gt;pcat_Id&lt;/span&gt;&lt;/font&gt;&lt;/div&gt;" style="ellipse;whiteSpace=wrap;html=1;rounded=0;" vertex="1" parent="WIyWlLk6GJQsqaUBKTNV-1">
          <mxGeometry x="155" y="1314" width="110" height="40" as="geometry" />
        </mxCell>
        <mxCell id="jJb1c6qj5qtRXKOhrBhQ-52" value="&lt;div style=&quot;text-align: left;&quot;&gt;&lt;font face=&quot;Arial&quot;&gt;&lt;span style=&quot;font-size: 13px; white-space-collapse: preserve; background-color: rgb(255, 255, 255);&quot;&gt;stock&lt;/span&gt;&lt;/font&gt;&lt;/div&gt;&lt;div style=&quot;text-align: left;&quot;&gt;&lt;font face=&quot;Arial&quot;&gt;&lt;span style=&quot;font-size: 13px; white-space-collapse: preserve; background-color: rgb(255, 255, 255);&quot;&gt;quantity&lt;/span&gt;&lt;/font&gt;&lt;/div&gt;" style="ellipse;whiteSpace=wrap;html=1;rounded=0;" vertex="1" parent="WIyWlLk6GJQsqaUBKTNV-1">
          <mxGeometry x="-325" y="1520" width="75" height="40" as="geometry" />
        </mxCell>
        <mxCell id="jJb1c6qj5qtRXKOhrBhQ-53" value="&lt;div style=&quot;text-align: left;&quot;&gt;&lt;font face=&quot;Arial&quot;&gt;&lt;span style=&quot;font-size: 13px; white-space-collapse: preserve; background-color: rgb(255, 255, 255);&quot;&gt;price&lt;/span&gt;&lt;/font&gt;&lt;/div&gt;" style="ellipse;whiteSpace=wrap;html=1;rounded=0;" vertex="1" parent="WIyWlLk6GJQsqaUBKTNV-1">
          <mxGeometry x="-295" y="1404" width="78" height="40" as="geometry" />
        </mxCell>
        <mxCell id="jJb1c6qj5qtRXKOhrBhQ-55" value="&lt;div style=&quot;text-align: left;&quot;&gt;&lt;font face=&quot;Arial&quot;&gt;&lt;span style=&quot;font-size: 13px; white-space-collapse: preserve; background-color: rgb(255, 255, 255);&quot;&gt;acat_name&lt;/span&gt;&lt;/font&gt;&lt;/div&gt;" style="ellipse;whiteSpace=wrap;html=1;rounded=0;" vertex="1" parent="WIyWlLk6GJQsqaUBKTNV-1">
          <mxGeometry x="785" y="-229.9999999999999" width="78" height="40" as="geometry" />
        </mxCell>
        <mxCell id="jJb1c6qj5qtRXKOhrBhQ-59" value="Product_sub-categories" style="rounded=0;whiteSpace=wrap;html=1;" vertex="1" parent="WIyWlLk6GJQsqaUBKTNV-1">
          <mxGeometry x="640" y="1374" width="150" height="60" as="geometry" />
        </mxCell>
        <mxCell id="jJb1c6qj5qtRXKOhrBhQ-63" value="&lt;div style=&quot;text-align: left;&quot;&gt;&lt;font face=&quot;Arial&quot;&gt;&lt;span style=&quot;font-size: 13px; white-space-collapse: preserve; background-color: rgb(255, 255, 255);&quot;&gt;sc name&lt;/span&gt;&lt;/font&gt;&lt;/div&gt;" style="ellipse;whiteSpace=wrap;html=1;rounded=0;" vertex="1" parent="WIyWlLk6GJQsqaUBKTNV-1">
          <mxGeometry x="1503" y="-151" width="78" height="40" as="geometry" />
        </mxCell>
        <mxCell id="jJb1c6qj5qtRXKOhrBhQ-65" value="brand" style="rounded=0;whiteSpace=wrap;html=1;" vertex="1" parent="WIyWlLk6GJQsqaUBKTNV-1">
          <mxGeometry x="274" y="1560" width="120" height="60" as="geometry" />
        </mxCell>
        <mxCell id="jJb1c6qj5qtRXKOhrBhQ-73" value="&lt;div style=&quot;text-align: left;&quot;&gt;&lt;font face=&quot;Arial&quot;&gt;&lt;span style=&quot;font-size: 13px; white-space-collapse: preserve; background-color: rgb(255, 255, 255);&quot;&gt;about&lt;/span&gt;&lt;/font&gt;&lt;/div&gt;" style="ellipse;whiteSpace=wrap;html=1;rounded=0;" vertex="1" parent="WIyWlLk6GJQsqaUBKTNV-1">
          <mxGeometry x="469" y="50" width="70" height="40" as="geometry" />
        </mxCell>
        <mxCell id="HE5ABWrj2HsQPp03Jtrv-8" style="edgeStyle=orthogonalEdgeStyle;rounded=0;orthogonalLoop=1;jettySize=auto;html=1;exitX=0.5;exitY=1;exitDx=0;exitDy=0;" edge="1" parent="WIyWlLk6GJQsqaUBKTNV-1" source="jJb1c6qj5qtRXKOhrBhQ-75">
          <mxGeometry relative="1" as="geometry">
            <mxPoint x="884.4285714285716" y="237.85714285714312" as="targetPoint" />
          </mxGeometry>
        </mxCell>
        <mxCell id="jJb1c6qj5qtRXKOhrBhQ-75" value="Art_Work" style="rounded=0;whiteSpace=wrap;html=1;" vertex="1" parent="WIyWlLk6GJQsqaUBKTNV-1">
          <mxGeometry x="824" y="178" width="120" height="60" as="geometry" />
        </mxCell>
        <mxCell id="jJb1c6qj5qtRXKOhrBhQ-78" value="&lt;div style=&quot;text-align: left;&quot;&gt;&lt;font face=&quot;Arial&quot;&gt;&lt;span style=&quot;font-size: 13px; white-space-collapse: preserve; background-color: rgb(255, 255, 255);&quot;&gt;description&lt;/span&gt;&lt;/font&gt;&lt;/div&gt;" style="ellipse;whiteSpace=wrap;html=1;rounded=0;" vertex="1" parent="WIyWlLk6GJQsqaUBKTNV-1">
          <mxGeometry x="1543" y="-100.5" width="70" height="40" as="geometry" />
        </mxCell>
        <mxCell id="jJb1c6qj5qtRXKOhrBhQ-80" value="&lt;div style=&quot;text-align: left;&quot;&gt;&lt;font face=&quot;Arial&quot;&gt;&lt;span style=&quot;font-size: 13px; white-space-collapse: preserve; background-color: rgb(255, 255, 255);&quot;&gt;acat_id&lt;/span&gt;&lt;/font&gt;&lt;/div&gt;" style="ellipse;whiteSpace=wrap;html=1;rounded=0;" vertex="1" parent="WIyWlLk6GJQsqaUBKTNV-1">
          <mxGeometry x="732" y="-184.37" width="70" height="40" as="geometry" />
        </mxCell>
        <mxCell id="jJb1c6qj5qtRXKOhrBhQ-105" value="Role_id" style="ellipse;whiteSpace=wrap;html=1;rounded=0;" vertex="1" parent="WIyWlLk6GJQsqaUBKTNV-1">
          <mxGeometry x="-362.5" y="424" width="91" height="50" as="geometry" />
        </mxCell>
        <mxCell id="jJb1c6qj5qtRXKOhrBhQ-112" value="Role_name" style="ellipse;whiteSpace=wrap;html=1;rounded=0;" vertex="1" parent="WIyWlLk6GJQsqaUBKTNV-1">
          <mxGeometry x="-362.5" y="639" width="91" height="50" as="geometry" />
        </mxCell>
        <mxCell id="jJb1c6qj5qtRXKOhrBhQ-114" value="" style="rhombus;whiteSpace=wrap;html=1;rounded=0;" vertex="1" parent="WIyWlLk6GJQsqaUBKTNV-1">
          <mxGeometry x="838" y="761" width="80" height="80" as="geometry" />
        </mxCell>
        <mxCell id="jJb1c6qj5qtRXKOhrBhQ-116" value="" style="rhombus;whiteSpace=wrap;html=1;rounded=0;" vertex="1" parent="WIyWlLk6GJQsqaUBKTNV-1">
          <mxGeometry x="666" y="168.5" width="80" height="80" as="geometry" />
        </mxCell>
        <mxCell id="aXcvZnt5LT_l5kHwnusx-14" value="Product_Categories" style="rounded=0;whiteSpace=wrap;html=1;" vertex="1" parent="WIyWlLk6GJQsqaUBKTNV-1">
          <mxGeometry x="278" y="1374" width="120" height="60" as="geometry" />
        </mxCell>
        <mxCell id="jJb1c6qj5qtRXKOhrBhQ-118" value="Art_orders" style="rounded=0;whiteSpace=wrap;html=1;" vertex="1" parent="WIyWlLk6GJQsqaUBKTNV-1">
          <mxGeometry x="1004" y="771" width="120" height="60" as="geometry" />
        </mxCell>
        <mxCell id="jJb1c6qj5qtRXKOhrBhQ-134" value="&lt;div style=&quot;text-align: left;&quot;&gt;&lt;font face=&quot;Arial&quot;&gt;&lt;span style=&quot;font-size: 13px; white-space-collapse: preserve; background-color: rgb(255, 255, 255);&quot;&gt;qty&lt;/span&gt;&lt;/font&gt;&lt;/div&gt;" style="ellipse;whiteSpace=wrap;html=1;rounded=0;" vertex="1" parent="WIyWlLk6GJQsqaUBKTNV-1">
          <mxGeometry x="1463" y="930" width="78" height="40" as="geometry" />
        </mxCell>
        <mxCell id="aXcvZnt5LT_l5kHwnusx-18" value="" style="rhombus;whiteSpace=wrap;html=1;rounded=0;" vertex="1" parent="WIyWlLk6GJQsqaUBKTNV-1">
          <mxGeometry x="115" y="1550" width="80" height="80" as="geometry" />
        </mxCell>
        <mxCell id="MjH0q3wsF-1Rn3Nc3UPa-1" value="Art_Categories" style="rounded=0;whiteSpace=wrap;html=1;" vertex="1" parent="WIyWlLk6GJQsqaUBKTNV-1">
          <mxGeometry x="824" y="-110" width="120" height="60" as="geometry" />
        </mxCell>
        <mxCell id="aXcvZnt5LT_l5kHwnusx-15" value="" style="rhombus;whiteSpace=wrap;html=1;rounded=0;" vertex="1" parent="WIyWlLk6GJQsqaUBKTNV-1">
          <mxGeometry x="115" y="1364" width="80" height="80" as="geometry" />
        </mxCell>
        <mxCell id="MjH0q3wsF-1Rn3Nc3UPa-3" value="" style="rhombus;whiteSpace=wrap;html=1;rounded=0;" vertex="1" parent="WIyWlLk6GJQsqaUBKTNV-1">
          <mxGeometry x="1058" y="-120" width="80" height="80" as="geometry" />
        </mxCell>
        <mxCell id="aXcvZnt5LT_l5kHwnusx-22" value="" style="rhombus;whiteSpace=wrap;html=1;rounded=0;" vertex="1" parent="WIyWlLk6GJQsqaUBKTNV-1">
          <mxGeometry x="470" y="1364" width="80" height="80" as="geometry" />
        </mxCell>
        <mxCell id="jJb1c6qj5qtRXKOhrBhQ-138" value="Art_Sub-Category" style="rounded=0;whiteSpace=wrap;html=1;" vertex="1" parent="WIyWlLk6GJQsqaUBKTNV-1">
          <mxGeometry x="1273" y="-111" width="120" height="61" as="geometry" />
        </mxCell>
        <mxCell id="jJb1c6qj5qtRXKOhrBhQ-148" value="" style="rhombus;whiteSpace=wrap;html=1;rounded=0;" vertex="1" parent="WIyWlLk6GJQsqaUBKTNV-1">
          <mxGeometry x="844" y="1001" width="80" height="80" as="geometry" />
        </mxCell>
        <mxCell id="jJb1c6qj5qtRXKOhrBhQ-149" value="Product_orders" style="rounded=0;whiteSpace=wrap;html=1;" vertex="1" parent="WIyWlLk6GJQsqaUBKTNV-1">
          <mxGeometry x="1004" y="1011" width="120" height="60" as="geometry" />
        </mxCell>
        <mxCell id="jJb1c6qj5qtRXKOhrBhQ-154" value="Order_details" style="rounded=0;whiteSpace=wrap;html=1;" vertex="1" parent="WIyWlLk6GJQsqaUBKTNV-1">
          <mxGeometry x="1292" y="890" width="120" height="60" as="geometry" />
        </mxCell>
        <mxCell id="jJb1c6qj5qtRXKOhrBhQ-155" value="" style="rhombus;whiteSpace=wrap;html=1;rounded=0;" vertex="1" parent="WIyWlLk6GJQsqaUBKTNV-1">
          <mxGeometry x="1180" y="879.5" width="80" height="80" as="geometry" />
        </mxCell>
        <mxCell id="jJb1c6qj5qtRXKOhrBhQ-162" value="&lt;span style=&quot;font-family: Arial; font-size: 13px; text-align: left; white-space-collapse: preserve; background-color: rgb(255, 255, 255);&quot;&gt;artist_id&lt;/span&gt;" style="ellipse;whiteSpace=wrap;html=1;rounded=0;" vertex="1" parent="WIyWlLk6GJQsqaUBKTNV-1">
          <mxGeometry x="1098" y="120" width="70" height="40" as="geometry" />
        </mxCell>
        <mxCell id="jJb1c6qj5qtRXKOhrBhQ-165" value="&lt;div style=&quot;text-align: left;&quot;&gt;&lt;font face=&quot;Arial&quot;&gt;&lt;span style=&quot;font-size: 13px; white-space-collapse: preserve; background-color: rgb(255, 255, 255);&quot;&gt;acat_id&lt;/span&gt;&lt;/font&gt;&lt;/div&gt;" style="ellipse;whiteSpace=wrap;html=1;rounded=0;" vertex="1" parent="WIyWlLk6GJQsqaUBKTNV-1">
          <mxGeometry x="1507" y="-40" width="70" height="40" as="geometry" />
        </mxCell>
        <mxCell id="jJb1c6qj5qtRXKOhrBhQ-166" value="&lt;div style=&quot;text-align: left;&quot;&gt;&lt;font face=&quot;Arial&quot;&gt;&lt;span style=&quot;font-size: 13px; white-space-collapse: preserve; background-color: rgb(255, 255, 255);&quot;&gt;description&lt;/span&gt;&lt;/font&gt;&lt;/div&gt;" style="ellipse;whiteSpace=wrap;html=1;rounded=0;" vertex="1" parent="WIyWlLk6GJQsqaUBKTNV-1">
          <mxGeometry x="891" y="-232.87" width="70" height="40" as="geometry" />
        </mxCell>
        <mxCell id="jJb1c6qj5qtRXKOhrBhQ-168" value="" style="rhombus;whiteSpace=wrap;html=1;rounded=0;" vertex="1" parent="WIyWlLk6GJQsqaUBKTNV-1">
          <mxGeometry x="844" y="19" width="80" height="80" as="geometry" />
        </mxCell>
        <mxCell id="jJb1c6qj5qtRXKOhrBhQ-171" value="&lt;div style=&quot;text-align: left;&quot;&gt;&lt;font face=&quot;Arial&quot;&gt;&lt;span style=&quot;font-size: 13.3333px;&quot;&gt;aor_id&lt;/span&gt;&lt;/font&gt;&lt;/div&gt;" style="ellipse;whiteSpace=wrap;html=1;rounded=0;" vertex="1" parent="WIyWlLk6GJQsqaUBKTNV-1">
          <mxGeometry x="950" y="654" width="78" height="40" as="geometry" />
        </mxCell>
        <mxCell id="jJb1c6qj5qtRXKOhrBhQ-172" value="&lt;div style=&quot;text-align: left;&quot;&gt;&lt;font face=&quot;Arial&quot;&gt;&lt;span style=&quot;font-size: 13px; white-space-collapse: preserve; background-color: rgb(255, 255, 255);&quot;&gt;User_id&lt;/span&gt;&lt;/font&gt;&lt;/div&gt;" style="ellipse;whiteSpace=wrap;html=1;rounded=0;" vertex="1" parent="WIyWlLk6GJQsqaUBKTNV-1">
          <mxGeometry x="1022" y="624" width="70" height="40" as="geometry" />
        </mxCell>
        <mxCell id="jJb1c6qj5qtRXKOhrBhQ-173" value="&lt;div style=&quot;text-align: left;&quot;&gt;&lt;font face=&quot;Arial&quot;&gt;&lt;span style=&quot;font-size: 13.3333px;&quot;&gt;por_id&lt;/span&gt;&lt;/font&gt;&lt;/div&gt;" style="ellipse;whiteSpace=wrap;html=1;rounded=0;" vertex="1" parent="WIyWlLk6GJQsqaUBKTNV-1">
          <mxGeometry x="895" y="1083" width="78" height="40" as="geometry" />
        </mxCell>
        <mxCell id="jJb1c6qj5qtRXKOhrBhQ-174" value="&lt;div style=&quot;text-align: left;&quot;&gt;&lt;font face=&quot;Arial&quot;&gt;&lt;span style=&quot;font-size: 13px; white-space-collapse: preserve; background-color: rgb(255, 255, 255);&quot;&gt;user_id&lt;/span&gt;&lt;/font&gt;&lt;/div&gt;" style="ellipse;whiteSpace=wrap;html=1;rounded=0;" vertex="1" parent="WIyWlLk6GJQsqaUBKTNV-1">
          <mxGeometry x="1043" y="1169" width="70" height="40" as="geometry" />
        </mxCell>
        <mxCell id="jJb1c6qj5qtRXKOhrBhQ-175" value="&lt;div style=&quot;text-align: left;&quot;&gt;&lt;font face=&quot;Arial&quot;&gt;&lt;span style=&quot;font-size: 13.3333px;&quot;&gt;artwork_id&lt;/span&gt;&lt;/font&gt;&lt;/div&gt;" style="ellipse;whiteSpace=wrap;html=1;rounded=0;" vertex="1" parent="WIyWlLk6GJQsqaUBKTNV-1">
          <mxGeometry x="1204" y="681" width="78" height="40" as="geometry" />
        </mxCell>
        <mxCell id="jJb1c6qj5qtRXKOhrBhQ-176" value="&lt;div style=&quot;text-align: left;&quot;&gt;&lt;font face=&quot;Arial&quot;&gt;&lt;span style=&quot;font-size: 13.3333px;&quot;&gt;p_id&lt;/span&gt;&lt;/font&gt;&lt;/div&gt;" style="ellipse;whiteSpace=wrap;html=1;rounded=0;" vertex="1" parent="WIyWlLk6GJQsqaUBKTNV-1">
          <mxGeometry x="1400" y="831" width="78" height="40" as="geometry" />
        </mxCell>
        <mxCell id="jJb1c6qj5qtRXKOhrBhQ-177" value="&lt;div style=&quot;text-align: left;&quot;&gt;&lt;font face=&quot;Arial&quot;&gt;&lt;span style=&quot;font-size: 13.3333px;&quot;&gt;od_id&lt;/span&gt;&lt;/font&gt;&lt;/div&gt;" style="ellipse;whiteSpace=wrap;html=1;rounded=0;" vertex="1" parent="WIyWlLk6GJQsqaUBKTNV-1">
          <mxGeometry x="1313" y="975" width="78" height="40" as="geometry" />
        </mxCell>
        <mxCell id="jJb1c6qj5qtRXKOhrBhQ-178" value="&lt;div style=&quot;text-align: left;&quot;&gt;&lt;font face=&quot;Arial&quot;&gt;&lt;span style=&quot;font-size: 13.3333px;&quot;&gt;por_id&lt;/span&gt;&lt;/font&gt;&lt;/div&gt;" style="ellipse;whiteSpace=wrap;html=1;rounded=0;" vertex="1" parent="WIyWlLk6GJQsqaUBKTNV-1">
          <mxGeometry x="1397" y="980" width="78" height="40" as="geometry" />
        </mxCell>
        <mxCell id="rgJhV1s86dMsfrk5-m3y-1" value="" style="endArrow=none;html=1;rounded=0;entryX=0;entryY=0.5;entryDx=0;entryDy=0;" edge="1" parent="WIyWlLk6GJQsqaUBKTNV-1" source="jJb1c6qj5qtRXKOhrBhQ-47" target="aXcvZnt5LT_l5kHwnusx-15">
          <mxGeometry width="50" height="50" relative="1" as="geometry">
            <mxPoint x="325" y="1214" as="sourcePoint" />
            <mxPoint x="375" y="1164" as="targetPoint" />
            <Array as="points">
              <mxPoint x="55" y="1404" />
            </Array>
          </mxGeometry>
        </mxCell>
        <mxCell id="rgJhV1s86dMsfrk5-m3y-2" value="" style="endArrow=none;html=1;rounded=0;entryX=0.5;entryY=0;entryDx=0;entryDy=0;exitX=0.5;exitY=1;exitDx=0;exitDy=0;" edge="1" parent="WIyWlLk6GJQsqaUBKTNV-1" source="jJb1c6qj5qtRXKOhrBhQ-105" target="UwYnIVmGFYntGTS2J9TL-0">
          <mxGeometry width="50" height="50" relative="1" as="geometry">
            <mxPoint x="-177" y="380" as="sourcePoint" />
            <mxPoint x="33" y="330" as="targetPoint" />
            <Array as="points" />
          </mxGeometry>
        </mxCell>
        <mxCell id="rgJhV1s86dMsfrk5-m3y-3" value="" style="endArrow=none;html=1;rounded=0;entryX=0;entryY=0.5;entryDx=0;entryDy=0;exitX=1;exitY=0.5;exitDx=0;exitDy=0;" edge="1" parent="WIyWlLk6GJQsqaUBKTNV-1" source="jJb1c6qj5qtRXKOhrBhQ-4" target="jJb1c6qj5qtRXKOhrBhQ-5">
          <mxGeometry width="50" height="50" relative="1" as="geometry">
            <mxPoint x="323" y="168.5" as="sourcePoint" />
            <mxPoint x="373" y="118.5" as="targetPoint" />
          </mxGeometry>
        </mxCell>
        <mxCell id="so5tCF9_g2HEnUHstBTW-14" value="" style="endArrow=none;html=1;rounded=0;entryX=0.5;entryY=1;entryDx=0;entryDy=0;exitX=0.5;exitY=0;exitDx=0;exitDy=0;" edge="1" parent="WIyWlLk6GJQsqaUBKTNV-1" source="jJb1c6qj5qtRXKOhrBhQ-112" target="UwYnIVmGFYntGTS2J9TL-0">
          <mxGeometry width="50" height="50" relative="1" as="geometry">
            <mxPoint x="-17" y="660" as="sourcePoint" />
            <mxPoint x="33" y="610" as="targetPoint" />
          </mxGeometry>
        </mxCell>
        <mxCell id="rgJhV1s86dMsfrk5-m3y-5" value="" style="endArrow=none;html=1;rounded=0;entryX=0.5;entryY=1;entryDx=0;entryDy=0;exitX=1;exitY=0.25;exitDx=0;exitDy=0;" edge="1" parent="WIyWlLk6GJQsqaUBKTNV-1" source="UwYnIVmGFYntGTS2J9TL-1" target="jJb1c6qj5qtRXKOhrBhQ-4">
          <mxGeometry width="50" height="50" relative="1" as="geometry">
            <mxPoint x="353" y="570" as="sourcePoint" />
            <mxPoint x="403" y="520" as="targetPoint" />
            <Array as="points">
              <mxPoint x="303" y="540" />
            </Array>
          </mxGeometry>
        </mxCell>
        <mxCell id="rgJhV1s86dMsfrk5-m3y-6" value="" style="endArrow=none;html=1;rounded=0;entryX=0;entryY=0.5;entryDx=0;entryDy=0;exitX=1;exitY=0.5;exitDx=0;exitDy=0;" edge="1" parent="WIyWlLk6GJQsqaUBKTNV-1" source="jJb1c6qj5qtRXKOhrBhQ-5" target="jJb1c6qj5qtRXKOhrBhQ-116">
          <mxGeometry width="50" height="50" relative="1" as="geometry">
            <mxPoint x="483" y="100" as="sourcePoint" />
            <mxPoint x="533" y="50" as="targetPoint" />
          </mxGeometry>
        </mxCell>
        <mxCell id="so5tCF9_g2HEnUHstBTW-18" value="" style="endArrow=none;html=1;rounded=0;entryX=0.996;entryY=0.586;entryDx=0;entryDy=0;entryPerimeter=0;" edge="1" parent="WIyWlLk6GJQsqaUBKTNV-1" target="UwYnIVmGFYntGTS2J9TL-1">
          <mxGeometry width="50" height="50" relative="1" as="geometry">
            <mxPoint x="303" y="880" as="sourcePoint" />
            <mxPoint x="143" y="620" as="targetPoint" />
            <Array as="points">
              <mxPoint x="303" y="560" />
            </Array>
          </mxGeometry>
        </mxCell>
        <mxCell id="rgJhV1s86dMsfrk5-m3y-7" value="" style="endArrow=none;html=1;rounded=0;entryX=0;entryY=0.5;entryDx=0;entryDy=0;exitX=1;exitY=0.5;exitDx=0;exitDy=0;" edge="1" parent="WIyWlLk6GJQsqaUBKTNV-1" source="jJb1c6qj5qtRXKOhrBhQ-116" target="jJb1c6qj5qtRXKOhrBhQ-75">
          <mxGeometry width="50" height="50" relative="1" as="geometry">
            <mxPoint x="483" y="100" as="sourcePoint" />
            <mxPoint x="533" y="50" as="targetPoint" />
          </mxGeometry>
        </mxCell>
        <mxCell id="rgJhV1s86dMsfrk5-m3y-8" value="" style="endArrow=none;html=1;rounded=0;entryX=0.5;entryY=0;entryDx=0;entryDy=0;exitX=0.5;exitY=1;exitDx=0;exitDy=0;" edge="1" parent="WIyWlLk6GJQsqaUBKTNV-1" source="jJb1c6qj5qtRXKOhrBhQ-168" target="jJb1c6qj5qtRXKOhrBhQ-75">
          <mxGeometry width="50" height="50" relative="1" as="geometry">
            <mxPoint x="483" y="100" as="sourcePoint" />
            <mxPoint x="533" y="50" as="targetPoint" />
          </mxGeometry>
        </mxCell>
        <mxCell id="so5tCF9_g2HEnUHstBTW-22" value="" style="endArrow=none;html=1;rounded=0;entryX=0;entryY=0.5;entryDx=0;entryDy=0;exitX=1;exitY=0.5;exitDx=0;exitDy=0;" edge="1" parent="WIyWlLk6GJQsqaUBKTNV-1" source="jJb1c6qj5qtRXKOhrBhQ-148" target="jJb1c6qj5qtRXKOhrBhQ-149">
          <mxGeometry width="50" height="50" relative="1" as="geometry">
            <mxPoint x="911" y="1016" as="sourcePoint" />
            <mxPoint x="961" y="966" as="targetPoint" />
          </mxGeometry>
        </mxCell>
        <mxCell id="rgJhV1s86dMsfrk5-m3y-11" value="" style="endArrow=none;html=1;rounded=0;entryX=0.5;entryY=1;entryDx=0;entryDy=0;exitX=0.5;exitY=0;exitDx=0;exitDy=0;" edge="1" parent="WIyWlLk6GJQsqaUBKTNV-1" source="jJb1c6qj5qtRXKOhrBhQ-168" target="MjH0q3wsF-1Rn3Nc3UPa-1">
          <mxGeometry width="50" height="50" relative="1" as="geometry">
            <mxPoint x="813" y="390" as="sourcePoint" />
            <mxPoint x="733" y="330" as="targetPoint" />
          </mxGeometry>
        </mxCell>
        <mxCell id="so5tCF9_g2HEnUHstBTW-23" value="" style="endArrow=none;html=1;rounded=0;entryX=0.5;entryY=1;entryDx=0;entryDy=0;exitX=1;exitY=0.5;exitDx=0;exitDy=0;" edge="1" parent="WIyWlLk6GJQsqaUBKTNV-1" source="jJb1c6qj5qtRXKOhrBhQ-149" target="jJb1c6qj5qtRXKOhrBhQ-155">
          <mxGeometry width="50" height="50" relative="1" as="geometry">
            <mxPoint x="1171" y="1051" as="sourcePoint" />
            <mxPoint x="1211" y="960" as="targetPoint" />
            <Array as="points">
              <mxPoint x="1221" y="1040" />
            </Array>
          </mxGeometry>
        </mxCell>
        <mxCell id="rgJhV1s86dMsfrk5-m3y-12" value="" style="endArrow=none;html=1;rounded=0;entryX=0;entryY=0.5;entryDx=0;entryDy=0;exitX=1;exitY=0.5;exitDx=0;exitDy=0;" edge="1" parent="WIyWlLk6GJQsqaUBKTNV-1" source="MjH0q3wsF-1Rn3Nc3UPa-1" target="MjH0q3wsF-1Rn3Nc3UPa-3">
          <mxGeometry width="50" height="50" relative="1" as="geometry">
            <mxPoint x="483" y="80" as="sourcePoint" />
            <mxPoint x="533" y="30" as="targetPoint" />
          </mxGeometry>
        </mxCell>
        <mxCell id="rgJhV1s86dMsfrk5-m3y-13" value="" style="endArrow=none;html=1;rounded=0;entryX=0;entryY=0.5;entryDx=0;entryDy=0;exitX=1;exitY=0.5;exitDx=0;exitDy=0;" edge="1" parent="WIyWlLk6GJQsqaUBKTNV-1" source="MjH0q3wsF-1Rn3Nc3UPa-3" target="jJb1c6qj5qtRXKOhrBhQ-138">
          <mxGeometry width="50" height="50" relative="1" as="geometry">
            <mxPoint x="1143" y="80" as="sourcePoint" />
            <mxPoint x="1193" y="30" as="targetPoint" />
          </mxGeometry>
        </mxCell>
        <mxCell id="so5tCF9_g2HEnUHstBTW-24" value="" style="endArrow=none;html=1;rounded=0;entryX=0.5;entryY=0;entryDx=0;entryDy=0;exitX=1;exitY=0.5;exitDx=0;exitDy=0;" edge="1" parent="WIyWlLk6GJQsqaUBKTNV-1" source="jJb1c6qj5qtRXKOhrBhQ-118" target="jJb1c6qj5qtRXKOhrBhQ-155">
          <mxGeometry width="50" height="50" relative="1" as="geometry">
            <mxPoint x="1091" y="900" as="sourcePoint" />
            <mxPoint x="1141" y="850" as="targetPoint" />
            <Array as="points">
              <mxPoint x="1220" y="801" />
            </Array>
          </mxGeometry>
        </mxCell>
        <mxCell id="so5tCF9_g2HEnUHstBTW-25" value="" style="endArrow=none;html=1;rounded=0;entryX=1;entryY=0.5;entryDx=0;entryDy=0;" edge="1" parent="WIyWlLk6GJQsqaUBKTNV-1" target="jJb1c6qj5qtRXKOhrBhQ-114">
          <mxGeometry width="50" height="50" relative="1" as="geometry">
            <mxPoint x="1001" y="800" as="sourcePoint" />
            <mxPoint x="1141" y="850" as="targetPoint" />
          </mxGeometry>
        </mxCell>
        <mxCell id="MjH0q3wsF-1Rn3Nc3UPa-11" value="" style="endArrow=none;html=1;rounded=0;exitX=1;exitY=0.5;exitDx=0;exitDy=0;entryX=0;entryY=0.5;entryDx=0;entryDy=0;" edge="1" parent="WIyWlLk6GJQsqaUBKTNV-1" source="UwYnIVmGFYntGTS2J9TL-0" target="jJb1c6qj5qtRXKOhrBhQ-23">
          <mxGeometry width="50" height="50" relative="1" as="geometry">
            <mxPoint x="-67" y="600" as="sourcePoint" />
            <mxPoint x="-17" y="550" as="targetPoint" />
          </mxGeometry>
        </mxCell>
        <mxCell id="MjH0q3wsF-1Rn3Nc3UPa-15" value="" style="endArrow=none;html=1;rounded=0;exitX=1;exitY=0.5;exitDx=0;exitDy=0;entryX=0;entryY=0.5;entryDx=0;entryDy=0;" edge="1" parent="WIyWlLk6GJQsqaUBKTNV-1" source="jJb1c6qj5qtRXKOhrBhQ-23" target="UwYnIVmGFYntGTS2J9TL-1">
          <mxGeometry width="50" height="50" relative="1" as="geometry">
            <mxPoint x="-67" y="600" as="sourcePoint" />
            <mxPoint x="-17" y="550" as="targetPoint" />
          </mxGeometry>
        </mxCell>
        <mxCell id="qRqiK1MwPzCaoBUCLI0R-0" value="" style="endArrow=none;html=1;rounded=0;exitX=0.5;exitY=0;exitDx=0;exitDy=0;" edge="1" parent="WIyWlLk6GJQsqaUBKTNV-1" source="jJb1c6qj5qtRXKOhrBhQ-11">
          <mxGeometry width="50" height="50" relative="1" as="geometry">
            <mxPoint x="443" y="170" as="sourcePoint" />
            <mxPoint x="507" y="239" as="targetPoint" />
          </mxGeometry>
        </mxCell>
        <mxCell id="rgJhV1s86dMsfrk5-m3y-18" value="&lt;div style=&quot;text-align: left;&quot;&gt;&lt;font face=&quot;Arial&quot;&gt;&lt;span style=&quot;font-size: 13px; white-space-collapse: preserve; background-color: rgb(255, 255, 255);&quot;&gt;art_Photo&lt;/span&gt;&lt;/font&gt;&lt;/div&gt;" style="ellipse;whiteSpace=wrap;html=1;rounded=0;" vertex="1" parent="WIyWlLk6GJQsqaUBKTNV-1">
          <mxGeometry x="895" y="360" width="78" height="40" as="geometry" />
        </mxCell>
        <mxCell id="rgJhV1s86dMsfrk5-m3y-19" value="&lt;div style=&quot;text-align: left;&quot;&gt;&lt;font face=&quot;Arial&quot;&gt;&lt;span style=&quot;font-size: 13px; white-space-collapse: preserve; background-color: rgb(255, 255, 255);&quot;&gt;sc_id&lt;/span&gt;&lt;/font&gt;&lt;/div&gt;" style="ellipse;whiteSpace=wrap;html=1;rounded=0;" vertex="1" parent="WIyWlLk6GJQsqaUBKTNV-1">
          <mxGeometry x="1449" y="-192.87" width="80" height="48.5" as="geometry" />
        </mxCell>
        <mxCell id="qRqiK1MwPzCaoBUCLI0R-3" value="" style="endArrow=none;html=1;rounded=0;entryX=0.5;entryY=1;entryDx=0;entryDy=0;exitX=0.5;exitY=0;exitDx=0;exitDy=0;" edge="1" parent="WIyWlLk6GJQsqaUBKTNV-1" source="jJb1c6qj5qtRXKOhrBhQ-5" target="jJb1c6qj5qtRXKOhrBhQ-73">
          <mxGeometry width="50" height="50" relative="1" as="geometry">
            <mxPoint x="443" y="170" as="sourcePoint" />
            <mxPoint x="493" y="120" as="targetPoint" />
          </mxGeometry>
        </mxCell>
        <mxCell id="qRqiK1MwPzCaoBUCLI0R-26" style="edgeStyle=orthogonalEdgeStyle;rounded=0;orthogonalLoop=1;jettySize=auto;html=1;exitX=0.5;exitY=1;exitDx=0;exitDy=0;" edge="1" parent="WIyWlLk6GJQsqaUBKTNV-1">
          <mxGeometry relative="1" as="geometry">
            <mxPoint x="568" y="1101" as="sourcePoint" />
            <mxPoint x="568" y="1101" as="targetPoint" />
          </mxGeometry>
        </mxCell>
        <mxCell id="pN3y1RKpjwh6xJhPJnLb-4" value="" style="endArrow=none;html=1;rounded=0;entryX=0;entryY=0.5;entryDx=0;entryDy=0;exitX=1;exitY=0.5;exitDx=0;exitDy=0;" edge="1" parent="WIyWlLk6GJQsqaUBKTNV-1" source="jJb1c6qj5qtRXKOhrBhQ-138" target="jJb1c6qj5qtRXKOhrBhQ-78">
          <mxGeometry width="50" height="50" relative="1" as="geometry">
            <mxPoint x="1403" y="20" as="sourcePoint" />
            <mxPoint x="1453" y="-30" as="targetPoint" />
          </mxGeometry>
        </mxCell>
        <mxCell id="pN3y1RKpjwh6xJhPJnLb-6" value="" style="endArrow=none;html=1;rounded=0;exitX=0;exitY=0.5;exitDx=0;exitDy=0;" edge="1" parent="WIyWlLk6GJQsqaUBKTNV-1" source="jJb1c6qj5qtRXKOhrBhQ-165">
          <mxGeometry width="50" height="50" relative="1" as="geometry">
            <mxPoint x="1403" y="20" as="sourcePoint" />
            <mxPoint x="1394" y="-50" as="targetPoint" />
          </mxGeometry>
        </mxCell>
        <mxCell id="pN3y1RKpjwh6xJhPJnLb-7" value="" style="endArrow=none;html=1;rounded=0;entryX=0;entryY=1;entryDx=0;entryDy=0;exitX=1;exitY=0.25;exitDx=0;exitDy=0;" edge="1" parent="WIyWlLk6GJQsqaUBKTNV-1" source="jJb1c6qj5qtRXKOhrBhQ-138" target="jJb1c6qj5qtRXKOhrBhQ-63">
          <mxGeometry width="50" height="50" relative="1" as="geometry">
            <mxPoint x="1383" y="-90" as="sourcePoint" />
            <mxPoint x="1453" y="-110" as="targetPoint" />
          </mxGeometry>
        </mxCell>
        <mxCell id="HE5ABWrj2HsQPp03Jtrv-2" value="&lt;span style=&quot;font-family: Arial; font-size: 13px; text-align: left; white-space-collapse: preserve; background-color: rgb(255, 255, 255);&quot;&gt;artwork_name&lt;/span&gt;" style="ellipse;whiteSpace=wrap;html=1;rounded=0;" vertex="1" parent="WIyWlLk6GJQsqaUBKTNV-1">
          <mxGeometry x="802" y="350" width="89" height="40" as="geometry" />
        </mxCell>
        <mxCell id="pN3y1RKpjwh6xJhPJnLb-8" value="" style="endArrow=none;html=1;rounded=0;entryX=0;entryY=1;entryDx=0;entryDy=0;exitX=1;exitY=0;exitDx=0;exitDy=0;" edge="1" parent="WIyWlLk6GJQsqaUBKTNV-1" source="jJb1c6qj5qtRXKOhrBhQ-138" target="rgJhV1s86dMsfrk5-m3y-19">
          <mxGeometry width="50" height="50" relative="1" as="geometry">
            <mxPoint x="1403" y="-60" as="sourcePoint" />
            <mxPoint x="1453" y="-110" as="targetPoint" />
          </mxGeometry>
        </mxCell>
        <mxCell id="gmyV5Nfzq6nyXaN8LUYC-1" value="&lt;div style=&quot;text-align: left;&quot;&gt;&lt;font face=&quot;Arial&quot;&gt;&lt;span style=&quot;font-size: 13px; white-space-collapse: preserve; background-color: rgb(255, 255, 255);&quot;&gt;description&lt;/span&gt;&lt;/font&gt;&lt;/div&gt;" style="ellipse;whiteSpace=wrap;html=1;rounded=0;" vertex="1" parent="WIyWlLk6GJQsqaUBKTNV-1">
          <mxGeometry x="1051" y="325.5" width="70" height="40" as="geometry" />
        </mxCell>
        <mxCell id="pN3y1RKpjwh6xJhPJnLb-9" value="" style="endArrow=none;html=1;rounded=0;exitX=1;exitY=1;exitDx=0;exitDy=0;entryX=0;entryY=0;entryDx=0;entryDy=0;" edge="1" parent="WIyWlLk6GJQsqaUBKTNV-1" source="jJb1c6qj5qtRXKOhrBhQ-80" target="MjH0q3wsF-1Rn3Nc3UPa-1">
          <mxGeometry width="50" height="50" relative="1" as="geometry">
            <mxPoint x="753" y="-60" as="sourcePoint" />
            <mxPoint x="823" y="-80" as="targetPoint" />
          </mxGeometry>
        </mxCell>
        <mxCell id="pN3y1RKpjwh6xJhPJnLb-11" value="" style="endArrow=none;html=1;rounded=0;entryX=0.684;entryY=0.933;entryDx=0;entryDy=0;entryPerimeter=0;exitX=0.25;exitY=0;exitDx=0;exitDy=0;" edge="1" parent="WIyWlLk6GJQsqaUBKTNV-1" source="MjH0q3wsF-1Rn3Nc3UPa-1" target="jJb1c6qj5qtRXKOhrBhQ-55">
          <mxGeometry width="50" height="50" relative="1" as="geometry">
            <mxPoint x="753" y="-60" as="sourcePoint" />
            <mxPoint x="803" y="-110" as="targetPoint" />
          </mxGeometry>
        </mxCell>
        <mxCell id="HE5ABWrj2HsQPp03Jtrv-3" value="" style="endArrow=none;html=1;rounded=0;entryX=0.5;entryY=0;entryDx=0;entryDy=0;exitX=0;exitY=1;exitDx=0;exitDy=0;" edge="1" parent="WIyWlLk6GJQsqaUBKTNV-1" source="jJb1c6qj5qtRXKOhrBhQ-75" target="jJb1c6qj5qtRXKOhrBhQ-21">
          <mxGeometry width="50" height="50" relative="1" as="geometry">
            <mxPoint x="803" y="390" as="sourcePoint" />
            <mxPoint x="853" y="340" as="targetPoint" />
          </mxGeometry>
        </mxCell>
        <mxCell id="HE5ABWrj2HsQPp03Jtrv-4" value="" style="endArrow=none;html=1;rounded=0;entryX=0.5;entryY=0;entryDx=0;entryDy=0;exitX=0.25;exitY=1;exitDx=0;exitDy=0;" edge="1" parent="WIyWlLk6GJQsqaUBKTNV-1" source="jJb1c6qj5qtRXKOhrBhQ-75" target="HE5ABWrj2HsQPp03Jtrv-2">
          <mxGeometry width="50" height="50" relative="1" as="geometry">
            <mxPoint x="853" y="250" as="sourcePoint" />
            <mxPoint x="853" y="340" as="targetPoint" />
          </mxGeometry>
        </mxCell>
        <mxCell id="HE5ABWrj2HsQPp03Jtrv-5" value="" style="endArrow=none;html=1;rounded=0;entryX=0.241;entryY=0.121;entryDx=0;entryDy=0;exitX=0.5;exitY=1;exitDx=0;exitDy=0;entryPerimeter=0;" edge="1" parent="WIyWlLk6GJQsqaUBKTNV-1" source="jJb1c6qj5qtRXKOhrBhQ-75" target="rgJhV1s86dMsfrk5-m3y-18">
          <mxGeometry width="50" height="50" relative="1" as="geometry">
            <mxPoint x="803" y="390" as="sourcePoint" />
            <mxPoint x="853" y="340" as="targetPoint" />
          </mxGeometry>
        </mxCell>
        <mxCell id="HE5ABWrj2HsQPp03Jtrv-6" value="" style="endArrow=none;html=1;rounded=0;entryX=0;entryY=0;entryDx=0;entryDy=0;exitX=0.75;exitY=1;exitDx=0;exitDy=0;" edge="1" parent="WIyWlLk6GJQsqaUBKTNV-1" source="jJb1c6qj5qtRXKOhrBhQ-75" target="gmyV5Nfzq6nyXaN8LUYC-1">
          <mxGeometry width="50" height="50" relative="1" as="geometry">
            <mxPoint x="803" y="390" as="sourcePoint" />
            <mxPoint x="853" y="340" as="targetPoint" />
          </mxGeometry>
        </mxCell>
        <mxCell id="pN3y1RKpjwh6xJhPJnLb-13" value="" style="endArrow=none;html=1;rounded=0;entryX=0.5;entryY=1;entryDx=0;entryDy=0;exitX=0.75;exitY=0;exitDx=0;exitDy=0;" edge="1" parent="WIyWlLk6GJQsqaUBKTNV-1" source="MjH0q3wsF-1Rn3Nc3UPa-1" target="jJb1c6qj5qtRXKOhrBhQ-166">
          <mxGeometry width="50" height="50" relative="1" as="geometry">
            <mxPoint x="753" y="-60" as="sourcePoint" />
            <mxPoint x="803" y="-110" as="targetPoint" />
          </mxGeometry>
        </mxCell>
        <mxCell id="HE5ABWrj2HsQPp03Jtrv-7" value="" style="endArrow=none;html=1;rounded=0;entryX=0;entryY=0.5;entryDx=0;entryDy=0;exitX=1;exitY=0;exitDx=0;exitDy=0;" edge="1" parent="WIyWlLk6GJQsqaUBKTNV-1" source="jJb1c6qj5qtRXKOhrBhQ-75" target="jJb1c6qj5qtRXKOhrBhQ-162">
          <mxGeometry width="50" height="50" relative="1" as="geometry">
            <mxPoint x="803" y="390" as="sourcePoint" />
            <mxPoint x="853" y="340" as="targetPoint" />
          </mxGeometry>
        </mxCell>
        <mxCell id="HE5ABWrj2HsQPp03Jtrv-9" value="&lt;div style=&quot;text-align: left;&quot;&gt;&lt;font face=&quot;Arial&quot;&gt;&lt;span style=&quot;font-size: 13px; white-space-collapse: preserve; background-color: rgb(255, 255, 255);&quot;&gt;Shipping&lt;/span&gt;&lt;/font&gt;&lt;/div&gt;&lt;div style=&quot;text-align: left;&quot;&gt;&lt;font face=&quot;Arial&quot;&gt;&lt;span style=&quot;font-size: 13px; white-space-collapse: preserve; background-color: rgb(255, 255, 255);&quot;&gt;address&lt;/span&gt;&lt;/font&gt;&lt;/div&gt;" style="ellipse;whiteSpace=wrap;html=1;rounded=0;" vertex="1" parent="WIyWlLk6GJQsqaUBKTNV-1">
          <mxGeometry x="1463" y="871" width="75" height="40" as="geometry" />
        </mxCell>
        <mxCell id="HE5ABWrj2HsQPp03Jtrv-10" value="" style="endArrow=none;html=1;rounded=0;entryX=1;entryY=0.5;entryDx=0;entryDy=0;exitX=0;exitY=0.5;exitDx=0;exitDy=0;" edge="1" parent="WIyWlLk6GJQsqaUBKTNV-1" source="jJb1c6qj5qtRXKOhrBhQ-65" target="aXcvZnt5LT_l5kHwnusx-18">
          <mxGeometry width="50" height="50" relative="1" as="geometry">
            <mxPoint x="485" y="1464" as="sourcePoint" />
            <mxPoint x="535" y="1414" as="targetPoint" />
          </mxGeometry>
        </mxCell>
        <mxCell id="HE5ABWrj2HsQPp03Jtrv-11" value="" style="endArrow=none;html=1;rounded=0;exitX=1;exitY=0.5;exitDx=0;exitDy=0;entryX=0;entryY=0.5;entryDx=0;entryDy=0;" edge="1" parent="WIyWlLk6GJQsqaUBKTNV-1" source="aXcvZnt5LT_l5kHwnusx-15" target="aXcvZnt5LT_l5kHwnusx-14">
          <mxGeometry width="50" height="50" relative="1" as="geometry">
            <mxPoint x="485" y="1464" as="sourcePoint" />
            <mxPoint x="535" y="1414" as="targetPoint" />
          </mxGeometry>
        </mxCell>
        <mxCell id="HE5ABWrj2HsQPp03Jtrv-12" value="" style="endArrow=none;html=1;rounded=0;exitX=1;exitY=0.5;exitDx=0;exitDy=0;entryX=0;entryY=0.5;entryDx=0;entryDy=0;" edge="1" parent="WIyWlLk6GJQsqaUBKTNV-1" source="aXcvZnt5LT_l5kHwnusx-14" target="aXcvZnt5LT_l5kHwnusx-22">
          <mxGeometry width="50" height="50" relative="1" as="geometry">
            <mxPoint x="485" y="1464" as="sourcePoint" />
            <mxPoint x="535" y="1414" as="targetPoint" />
          </mxGeometry>
        </mxCell>
        <mxCell id="HE5ABWrj2HsQPp03Jtrv-13" value="" style="endArrow=none;html=1;rounded=0;entryX=1;entryY=0.5;entryDx=0;entryDy=0;exitX=0;exitY=0.5;exitDx=0;exitDy=0;" edge="1" parent="WIyWlLk6GJQsqaUBKTNV-1" source="jJb1c6qj5qtRXKOhrBhQ-59" target="aXcvZnt5LT_l5kHwnusx-22">
          <mxGeometry width="50" height="50" relative="1" as="geometry">
            <mxPoint x="485" y="1464" as="sourcePoint" />
            <mxPoint x="535" y="1414" as="targetPoint" />
          </mxGeometry>
        </mxCell>
        <mxCell id="kwx30zAEppSc_Bgp1WH7-0" value="" style="endArrow=none;html=1;rounded=0;entryX=0.5;entryY=1;entryDx=0;entryDy=0;exitX=0;exitY=0.5;exitDx=0;exitDy=0;" edge="1" parent="WIyWlLk6GJQsqaUBKTNV-1" source="aXcvZnt5LT_l5kHwnusx-18" target="jJb1c6qj5qtRXKOhrBhQ-47">
          <mxGeometry width="50" height="50" relative="1" as="geometry">
            <mxPoint x="55" y="1594" as="sourcePoint" />
            <mxPoint x="185" y="1474" as="targetPoint" />
            <Array as="points">
              <mxPoint x="55" y="1590" />
            </Array>
          </mxGeometry>
        </mxCell>
        <mxCell id="LFRIddNNgQjtAJyHvqCD-0" value="&lt;div style=&quot;text-align: left;&quot;&gt;&lt;font face=&quot;Arial&quot;&gt;&lt;span style=&quot;font-size: 13px; white-space-collapse: preserve; background-color: rgb(255, 255, 255);&quot;&gt;psub_Id&lt;/span&gt;&lt;/font&gt;&lt;/div&gt;" style="ellipse;whiteSpace=wrap;html=1;rounded=0;" vertex="1" parent="WIyWlLk6GJQsqaUBKTNV-1">
          <mxGeometry x="535" y="1314" width="110" height="40" as="geometry" />
        </mxCell>
        <mxCell id="kwx30zAEppSc_Bgp1WH7-2" value="&lt;div style=&quot;text-align: left;&quot;&gt;&lt;font face=&quot;Arial&quot;&gt;&lt;span style=&quot;font-size: 13.3333px;&quot;&gt;aor_date&lt;/span&gt;&lt;/font&gt;&lt;/div&gt;" style="ellipse;whiteSpace=wrap;html=1;rounded=0;" vertex="1" parent="WIyWlLk6GJQsqaUBKTNV-1">
          <mxGeometry x="914" y="699" width="78" height="40" as="geometry" />
        </mxCell>
        <mxCell id="kwx30zAEppSc_Bgp1WH7-4" value="&lt;div style=&quot;text-align: left;&quot;&gt;&lt;font face=&quot;Arial&quot;&gt;&lt;span style=&quot;font-size: 13.3333px;&quot;&gt;por_date&lt;/span&gt;&lt;/font&gt;&lt;/div&gt;" style="ellipse;whiteSpace=wrap;html=1;rounded=0;" vertex="1" parent="WIyWlLk6GJQsqaUBKTNV-1">
          <mxGeometry x="950" y="1150" width="78" height="40" as="geometry" />
        </mxCell>
        <mxCell id="LFRIddNNgQjtAJyHvqCD-3" value="&lt;div style=&quot;text-align: left;&quot;&gt;&lt;font face=&quot;Arial&quot;&gt;&lt;span style=&quot;font-size: 13px; white-space-collapse: preserve; background-color: rgb(255, 255, 255);&quot;&gt;pcat_name&lt;/span&gt;&lt;/font&gt;&lt;/div&gt;" style="ellipse;whiteSpace=wrap;html=1;rounded=0;" vertex="1" parent="WIyWlLk6GJQsqaUBKTNV-1">
          <mxGeometry x="229" y="1230" width="110" height="40" as="geometry" />
        </mxCell>
        <mxCell id="IG8fA_jKeGftFa02syG3-2" value="" style="endArrow=none;html=1;rounded=0;entryX=0;entryY=0.5;entryDx=0;entryDy=0;exitX=1;exitY=0.5;exitDx=0;exitDy=0;" edge="1" parent="WIyWlLk6GJQsqaUBKTNV-1" source="jJb1c6qj5qtRXKOhrBhQ-53" target="jJb1c6qj5qtRXKOhrBhQ-47">
          <mxGeometry width="50" height="50" relative="1" as="geometry">
            <mxPoint x="-195" y="1454" as="sourcePoint" />
            <mxPoint x="-25" y="1424" as="targetPoint" />
          </mxGeometry>
        </mxCell>
        <mxCell id="IG8fA_jKeGftFa02syG3-3" value="" style="endArrow=none;html=1;rounded=0;exitX=0.641;exitY=0.975;exitDx=0;exitDy=0;exitPerimeter=0;entryX=0;entryY=0.25;entryDx=0;entryDy=0;" edge="1" parent="WIyWlLk6GJQsqaUBKTNV-1" source="jJb1c6qj5qtRXKOhrBhQ-50" target="jJb1c6qj5qtRXKOhrBhQ-47">
          <mxGeometry width="50" height="50" relative="1" as="geometry">
            <mxPoint x="-75" y="1474" as="sourcePoint" />
            <mxPoint x="-25" y="1424" as="targetPoint" />
          </mxGeometry>
        </mxCell>
        <mxCell id="IG8fA_jKeGftFa02syG3-4" value="" style="endArrow=none;html=1;rounded=0;exitX=1;exitY=0.5;exitDx=0;exitDy=0;entryX=-0.003;entryY=0.644;entryDx=0;entryDy=0;entryPerimeter=0;" edge="1" parent="WIyWlLk6GJQsqaUBKTNV-1" source="jJb1c6qj5qtRXKOhrBhQ-49" target="jJb1c6qj5qtRXKOhrBhQ-47">
          <mxGeometry width="50" height="50" relative="1" as="geometry">
            <mxPoint x="-75" y="1474" as="sourcePoint" />
            <mxPoint x="-25" y="1424" as="targetPoint" />
          </mxGeometry>
        </mxCell>
        <mxCell id="IG8fA_jKeGftFa02syG3-5" value="" style="endArrow=none;html=1;rounded=0;exitX=1;exitY=0;exitDx=0;exitDy=0;entryX=0;entryY=1;entryDx=0;entryDy=0;" edge="1" parent="WIyWlLk6GJQsqaUBKTNV-1" source="jJb1c6qj5qtRXKOhrBhQ-52" target="jJb1c6qj5qtRXKOhrBhQ-47">
          <mxGeometry width="50" height="50" relative="1" as="geometry">
            <mxPoint x="-75" y="1474" as="sourcePoint" />
            <mxPoint x="-25" y="1424" as="targetPoint" />
            <Array as="points">
              <mxPoint x="-5" y="1514" />
            </Array>
          </mxGeometry>
        </mxCell>
        <mxCell id="IG8fA_jKeGftFa02syG3-6" value="" style="endArrow=none;html=1;rounded=0;entryX=0;entryY=0;entryDx=0;entryDy=0;exitX=1;exitY=1;exitDx=0;exitDy=0;" edge="1" parent="WIyWlLk6GJQsqaUBKTNV-1" source="jJb1c6qj5qtRXKOhrBhQ-48" target="jJb1c6qj5qtRXKOhrBhQ-47">
          <mxGeometry width="50" height="50" relative="1" as="geometry">
            <mxPoint x="-85" y="1434" as="sourcePoint" />
            <mxPoint x="-25" y="1424" as="targetPoint" />
          </mxGeometry>
        </mxCell>
        <mxCell id="jJb1c6qj5qtRXKOhrBhQ-48" value="&lt;div style=&quot;text-align: left;&quot;&gt;&lt;span style=&quot;background-color: initial; font-size: 13.3333px;&quot;&gt;&lt;font face=&quot;Arial&quot;&gt;p_id&lt;/font&gt;&lt;/span&gt;&lt;/div&gt;" style="ellipse;whiteSpace=wrap;html=1;rounded=0;" vertex="1" parent="WIyWlLk6GJQsqaUBKTNV-1">
          <mxGeometry x="-137" y="1334" width="78" height="40" as="geometry" />
        </mxCell>
        <mxCell id="LFRIddNNgQjtAJyHvqCD-9" value="&lt;div style=&quot;text-align: left;&quot;&gt;&lt;font face=&quot;Arial&quot;&gt;&lt;span style=&quot;font-size: 13px; white-space-collapse: preserve; background-color: rgb(255, 255, 255);&quot;&gt;psub_name&lt;/span&gt;&lt;/font&gt;&lt;/div&gt;" style="ellipse;whiteSpace=wrap;html=1;rounded=0;" vertex="1" parent="WIyWlLk6GJQsqaUBKTNV-1">
          <mxGeometry x="593" y="1254" width="110" height="40" as="geometry" />
        </mxCell>
        <mxCell id="LFRIddNNgQjtAJyHvqCD-5" value="" style="endArrow=none;html=1;rounded=0;entryX=0.25;entryY=0;entryDx=0;entryDy=0;exitX=1;exitY=1;exitDx=0;exitDy=0;" edge="1" parent="WIyWlLk6GJQsqaUBKTNV-1" source="jJb1c6qj5qtRXKOhrBhQ-51" target="aXcvZnt5LT_l5kHwnusx-14">
          <mxGeometry width="50" height="50" relative="1" as="geometry">
            <mxPoint x="135" y="1474" as="sourcePoint" />
            <mxPoint x="185" y="1424" as="targetPoint" />
          </mxGeometry>
        </mxCell>
        <mxCell id="LFRIddNNgQjtAJyHvqCD-6" value="" style="endArrow=none;html=1;rounded=0;" edge="1" parent="WIyWlLk6GJQsqaUBKTNV-1" source="LFRIddNNgQjtAJyHvqCD-3" target="aXcvZnt5LT_l5kHwnusx-14">
          <mxGeometry width="50" height="50" relative="1" as="geometry">
            <mxPoint x="268" y="1342" as="sourcePoint" />
            <mxPoint x="325" y="1374" as="targetPoint" />
          </mxGeometry>
        </mxCell>
        <mxCell id="LFRIddNNgQjtAJyHvqCD-7" value="" style="endArrow=none;html=1;rounded=0;exitX=0;exitY=1;exitDx=0;exitDy=0;entryX=0.58;entryY=0.002;entryDx=0;entryDy=0;entryPerimeter=0;" edge="1" parent="WIyWlLk6GJQsqaUBKTNV-1" source="LFRIddNNgQjtAJyHvqCD-4" target="aXcvZnt5LT_l5kHwnusx-14">
          <mxGeometry width="50" height="50" relative="1" as="geometry">
            <mxPoint x="395" y="1304" as="sourcePoint" />
            <mxPoint x="345" y="1374" as="targetPoint" />
          </mxGeometry>
        </mxCell>
        <mxCell id="LFRIddNNgQjtAJyHvqCD-4" value="&lt;div style=&quot;text-align: left;&quot;&gt;&lt;font face=&quot;Arial&quot;&gt;&lt;span style=&quot;font-size: 13px; white-space-collapse: preserve; background-color: rgb(255, 255, 255);&quot;&gt;description&lt;/span&gt;&lt;/font&gt;&lt;/div&gt;" style="ellipse;whiteSpace=wrap;html=1;rounded=0;" vertex="1" parent="WIyWlLk6GJQsqaUBKTNV-1">
          <mxGeometry x="375" y="1254" width="78" height="40" as="geometry" />
        </mxCell>
        <mxCell id="LFRIddNNgQjtAJyHvqCD-10" value="&lt;div style=&quot;text-align: left;&quot;&gt;&lt;font face=&quot;Arial&quot;&gt;&lt;span style=&quot;font-size: 13px; white-space-collapse: preserve; background-color: rgb(255, 255, 255);&quot;&gt;description&lt;/span&gt;&lt;/font&gt;&lt;/div&gt;" style="ellipse;whiteSpace=wrap;html=1;rounded=0;" vertex="1" parent="WIyWlLk6GJQsqaUBKTNV-1">
          <mxGeometry x="712" y="1244" width="78" height="40" as="geometry" />
        </mxCell>
        <mxCell id="LFRIddNNgQjtAJyHvqCD-13" value="&lt;div style=&quot;text-align: left;&quot;&gt;&lt;font face=&quot;Arial&quot;&gt;&lt;span style=&quot;font-size: 13px; white-space-collapse: preserve; background-color: rgb(255, 255, 255);&quot;&gt;pcat_id&lt;/span&gt;&lt;/font&gt;&lt;/div&gt;" style="ellipse;whiteSpace=wrap;html=1;rounded=0;" vertex="1" parent="WIyWlLk6GJQsqaUBKTNV-1">
          <mxGeometry x="785" y="1314" width="110" height="40" as="geometry" />
        </mxCell>
        <mxCell id="LFRIddNNgQjtAJyHvqCD-15" value="" style="endArrow=none;html=1;rounded=0;entryX=0.5;entryY=1;entryDx=0;entryDy=0;exitX=0.367;exitY=0;exitDx=0;exitDy=0;exitPerimeter=0;" edge="1" parent="WIyWlLk6GJQsqaUBKTNV-1" source="jJb1c6qj5qtRXKOhrBhQ-59" target="LFRIddNNgQjtAJyHvqCD-9">
          <mxGeometry width="50" height="50" relative="1" as="geometry">
            <mxPoint x="695" y="1364" as="sourcePoint" />
            <mxPoint x="745" y="1314" as="targetPoint" />
          </mxGeometry>
        </mxCell>
        <mxCell id="LFRIddNNgQjtAJyHvqCD-16" value="" style="endArrow=none;html=1;rounded=0;entryX=1;entryY=1;entryDx=0;entryDy=0;exitX=0.25;exitY=0;exitDx=0;exitDy=0;" edge="1" parent="WIyWlLk6GJQsqaUBKTNV-1" source="jJb1c6qj5qtRXKOhrBhQ-59" target="LFRIddNNgQjtAJyHvqCD-0">
          <mxGeometry width="50" height="50" relative="1" as="geometry">
            <mxPoint x="695" y="1364" as="sourcePoint" />
            <mxPoint x="745" y="1314" as="targetPoint" />
          </mxGeometry>
        </mxCell>
        <mxCell id="LFRIddNNgQjtAJyHvqCD-17" value="" style="endArrow=none;html=1;rounded=0;entryX=0;entryY=1;entryDx=0;entryDy=0;exitX=0.606;exitY=-0.007;exitDx=0;exitDy=0;exitPerimeter=0;" edge="1" parent="WIyWlLk6GJQsqaUBKTNV-1" source="jJb1c6qj5qtRXKOhrBhQ-59" target="LFRIddNNgQjtAJyHvqCD-10">
          <mxGeometry width="50" height="50" relative="1" as="geometry">
            <mxPoint x="695" y="1364" as="sourcePoint" />
            <mxPoint x="745" y="1314" as="targetPoint" />
          </mxGeometry>
        </mxCell>
        <mxCell id="XKyIKOg5m7HANeNzWdwx-0" value="&lt;div style=&quot;text-align: left;&quot;&gt;&lt;span style=&quot;background-color: initial; font-size: 13.3333px;&quot;&gt;&lt;font face=&quot;Arial&quot;&gt;b_id&lt;/font&gt;&lt;/span&gt;&lt;/div&gt;" style="ellipse;whiteSpace=wrap;html=1;rounded=0;" vertex="1" parent="WIyWlLk6GJQsqaUBKTNV-1">
          <mxGeometry x="453" y="1504" width="78" height="40" as="geometry" />
        </mxCell>
        <mxCell id="XKyIKOg5m7HANeNzWdwx-1" value="&lt;div style=&quot;text-align: left;&quot;&gt;&lt;span style=&quot;background-color: initial; font-size: 13.3333px;&quot;&gt;&lt;font face=&quot;Arial&quot;&gt;b_id&lt;/font&gt;&lt;/span&gt;&lt;/div&gt;" style="ellipse;whiteSpace=wrap;html=1;rounded=0;" vertex="1" parent="WIyWlLk6GJQsqaUBKTNV-1">
          <mxGeometry x="-285" y="1570" width="78" height="40" as="geometry" />
        </mxCell>
        <mxCell id="LFRIddNNgQjtAJyHvqCD-18" value="" style="endArrow=none;html=1;rounded=0;entryX=0;entryY=1;entryDx=0;entryDy=0;exitX=0.75;exitY=0;exitDx=0;exitDy=0;" edge="1" parent="WIyWlLk6GJQsqaUBKTNV-1" source="jJb1c6qj5qtRXKOhrBhQ-59" target="LFRIddNNgQjtAJyHvqCD-13">
          <mxGeometry width="50" height="50" relative="1" as="geometry">
            <mxPoint x="695" y="1364" as="sourcePoint" />
            <mxPoint x="745" y="1314" as="targetPoint" />
          </mxGeometry>
        </mxCell>
        <mxCell id="XKyIKOg5m7HANeNzWdwx-2" value="&lt;div style=&quot;text-align: left;&quot;&gt;&lt;span style=&quot;background-color: initial; font-size: 13.3333px;&quot;&gt;&lt;font face=&quot;Arial&quot;&gt;b_name&lt;/font&gt;&lt;/span&gt;&lt;/div&gt;" style="ellipse;whiteSpace=wrap;html=1;rounded=0;" vertex="1" parent="WIyWlLk6GJQsqaUBKTNV-1">
          <mxGeometry x="503" y="1544" width="78" height="40" as="geometry" />
        </mxCell>
        <mxCell id="XKyIKOg5m7HANeNzWdwx-4" value="&lt;div style=&quot;text-align: left;&quot;&gt;&lt;font face=&quot;Arial&quot;&gt;&lt;span style=&quot;font-size: 13px; white-space-collapse: preserve; background-color: rgb(255, 255, 255);&quot;&gt;description&lt;/span&gt;&lt;/font&gt;&lt;/div&gt;" style="ellipse;whiteSpace=wrap;html=1;rounded=0;" vertex="1" parent="WIyWlLk6GJQsqaUBKTNV-1">
          <mxGeometry x="503" y="1590" width="78" height="40" as="geometry" />
        </mxCell>
        <mxCell id="LFRIddNNgQjtAJyHvqCD-21" value="" style="endArrow=none;html=1;rounded=0;entryX=0;entryY=1;entryDx=0;entryDy=0;exitX=1;exitY=0.25;exitDx=0;exitDy=0;" edge="1" parent="WIyWlLk6GJQsqaUBKTNV-1" source="jJb1c6qj5qtRXKOhrBhQ-65" target="XKyIKOg5m7HANeNzWdwx-0">
          <mxGeometry width="50" height="50" relative="1" as="geometry">
            <mxPoint x="375" y="1534" as="sourcePoint" />
            <mxPoint x="425" y="1484" as="targetPoint" />
          </mxGeometry>
        </mxCell>
        <mxCell id="XKyIKOg5m7HANeNzWdwx-7" value="" style="endArrow=none;html=1;rounded=0;entryX=1;entryY=0.5;entryDx=0;entryDy=0;exitX=0;exitY=0.5;exitDx=0;exitDy=0;" edge="1" parent="WIyWlLk6GJQsqaUBKTNV-1" source="jJb1c6qj5qtRXKOhrBhQ-154" target="jJb1c6qj5qtRXKOhrBhQ-155">
          <mxGeometry width="50" height="50" relative="1" as="geometry">
            <mxPoint x="1011" y="810" as="sourcePoint" />
            <mxPoint x="928" y="811" as="targetPoint" />
          </mxGeometry>
        </mxCell>
        <mxCell id="LFRIddNNgQjtAJyHvqCD-23" value="" style="endArrow=none;html=1;rounded=0;entryX=0;entryY=0.5;entryDx=0;entryDy=0;exitX=1.002;exitY=0.435;exitDx=0;exitDy=0;exitPerimeter=0;" edge="1" parent="WIyWlLk6GJQsqaUBKTNV-1" source="jJb1c6qj5qtRXKOhrBhQ-65" target="XKyIKOg5m7HANeNzWdwx-2">
          <mxGeometry width="50" height="50" relative="1" as="geometry">
            <mxPoint x="375" y="1534" as="sourcePoint" />
            <mxPoint x="425" y="1484" as="targetPoint" />
          </mxGeometry>
        </mxCell>
        <mxCell id="LFRIddNNgQjtAJyHvqCD-24" value="" style="endArrow=none;html=1;rounded=0;exitX=1.001;exitY=0.601;exitDx=0;exitDy=0;entryX=0;entryY=0.5;entryDx=0;entryDy=0;exitPerimeter=0;" edge="1" parent="WIyWlLk6GJQsqaUBKTNV-1" source="jJb1c6qj5qtRXKOhrBhQ-65" target="XKyIKOg5m7HANeNzWdwx-4">
          <mxGeometry width="50" height="50" relative="1" as="geometry">
            <mxPoint x="375" y="1534" as="sourcePoint" />
            <mxPoint x="485" y="1634" as="targetPoint" />
          </mxGeometry>
        </mxCell>
        <mxCell id="_f5F-TfMylzyczDkocep-1" value="" style="endArrow=none;html=1;rounded=0;entryX=0;entryY=1;entryDx=0;entryDy=0;exitX=1;exitY=0;exitDx=0;exitDy=0;" edge="1" parent="WIyWlLk6GJQsqaUBKTNV-1" source="jJb1c6qj5qtRXKOhrBhQ-118" target="jJb1c6qj5qtRXKOhrBhQ-175">
          <mxGeometry width="50" height="50" relative="1" as="geometry">
            <mxPoint x="1273" y="910" as="sourcePoint" />
            <mxPoint x="1323" y="860" as="targetPoint" />
          </mxGeometry>
        </mxCell>
        <mxCell id="_f5F-TfMylzyczDkocep-3" value="" style="endArrow=none;html=1;rounded=0;entryX=0.048;entryY=0.694;entryDx=0;entryDy=0;entryPerimeter=0;exitX=1;exitY=0.25;exitDx=0;exitDy=0;" edge="1" parent="WIyWlLk6GJQsqaUBKTNV-1" source="jJb1c6qj5qtRXKOhrBhQ-154" target="HE5ABWrj2HsQPp03Jtrv-9">
          <mxGeometry width="50" height="50" relative="1" as="geometry">
            <mxPoint x="1273" y="910" as="sourcePoint" />
            <mxPoint x="1323" y="860" as="targetPoint" />
          </mxGeometry>
        </mxCell>
        <mxCell id="XKyIKOg5m7HANeNzWdwx-9" value="" style="endArrow=none;html=1;rounded=0;entryX=1;entryY=1;entryDx=0;entryDy=0;exitX=0.25;exitY=0;exitDx=0;exitDy=0;" edge="1" parent="WIyWlLk6GJQsqaUBKTNV-1" source="jJb1c6qj5qtRXKOhrBhQ-118" target="jJb1c6qj5qtRXKOhrBhQ-171">
          <mxGeometry width="50" height="50" relative="1" as="geometry">
            <mxPoint x="1402" y="910" as="sourcePoint" />
            <mxPoint x="1443" y="890" as="targetPoint" />
          </mxGeometry>
        </mxCell>
        <mxCell id="XKyIKOg5m7HANeNzWdwx-8" value="" style="endArrow=none;html=1;rounded=0;entryX=1;entryY=1;entryDx=0;entryDy=0;exitX=0.135;exitY=0.047;exitDx=0;exitDy=0;exitPerimeter=0;" edge="1" parent="WIyWlLk6GJQsqaUBKTNV-1" source="jJb1c6qj5qtRXKOhrBhQ-118" target="kwx30zAEppSc_Bgp1WH7-2">
          <mxGeometry width="50" height="50" relative="1" as="geometry">
            <mxPoint x="1053" y="710" as="sourcePoint" />
            <mxPoint x="1094" y="690" as="targetPoint" />
          </mxGeometry>
        </mxCell>
        <mxCell id="_f5F-TfMylzyczDkocep-2" value="" style="endArrow=none;html=1;rounded=0;entryX=0.295;entryY=0.975;entryDx=0;entryDy=0;entryPerimeter=0;exitX=0.75;exitY=0;exitDx=0;exitDy=0;" edge="1" parent="WIyWlLk6GJQsqaUBKTNV-1" source="jJb1c6qj5qtRXKOhrBhQ-154" target="jJb1c6qj5qtRXKOhrBhQ-176">
          <mxGeometry width="50" height="50" relative="1" as="geometry">
            <mxPoint x="1273" y="910" as="sourcePoint" />
            <mxPoint x="1323" y="860" as="targetPoint" />
          </mxGeometry>
        </mxCell>
        <mxCell id="XKyIKOg5m7HANeNzWdwx-10" value="" style="endArrow=none;html=1;rounded=0;entryX=0.5;entryY=1;entryDx=0;entryDy=0;exitX=0.5;exitY=0;exitDx=0;exitDy=0;" edge="1" parent="WIyWlLk6GJQsqaUBKTNV-1" source="jJb1c6qj5qtRXKOhrBhQ-118" target="jJb1c6qj5qtRXKOhrBhQ-172">
          <mxGeometry width="50" height="50" relative="1" as="geometry">
            <mxPoint x="1053" y="740" as="sourcePoint" />
            <mxPoint x="1094" y="720" as="targetPoint" />
          </mxGeometry>
        </mxCell>
        <mxCell id="LFRIddNNgQjtAJyHvqCD-26" value="" style="endArrow=none;html=1;rounded=0;entryX=0.25;entryY=1;entryDx=0;entryDy=0;exitX=0.5;exitY=0;exitDx=0;exitDy=0;" edge="1" parent="WIyWlLk6GJQsqaUBKTNV-1" source="kwx30zAEppSc_Bgp1WH7-4" target="jJb1c6qj5qtRXKOhrBhQ-149">
          <mxGeometry width="50" height="50" relative="1" as="geometry">
            <mxPoint x="963" y="1180" as="sourcePoint" />
            <mxPoint x="1013" y="1130" as="targetPoint" />
          </mxGeometry>
        </mxCell>
        <mxCell id="_f5F-TfMylzyczDkocep-5" value="" style="endArrow=none;html=1;rounded=0;exitX=0.5;exitY=0;exitDx=0;exitDy=0;entryX=0.75;entryY=1;entryDx=0;entryDy=0;" edge="1" parent="WIyWlLk6GJQsqaUBKTNV-1" source="jJb1c6qj5qtRXKOhrBhQ-178" target="jJb1c6qj5qtRXKOhrBhQ-154">
          <mxGeometry width="50" height="50" relative="1" as="geometry">
            <mxPoint x="1403" y="910" as="sourcePoint" />
            <mxPoint x="1413" y="950" as="targetPoint" />
          </mxGeometry>
        </mxCell>
        <mxCell id="_f5F-TfMylzyczDkocep-6" value="" style="endArrow=none;html=1;rounded=0;exitX=0.5;exitY=0;exitDx=0;exitDy=0;entryX=0.5;entryY=1;entryDx=0;entryDy=0;" edge="1" parent="WIyWlLk6GJQsqaUBKTNV-1" source="jJb1c6qj5qtRXKOhrBhQ-177" target="jJb1c6qj5qtRXKOhrBhQ-154">
          <mxGeometry width="50" height="50" relative="1" as="geometry">
            <mxPoint x="1373" y="970" as="sourcePoint" />
            <mxPoint x="1369" y="950" as="targetPoint" />
          </mxGeometry>
        </mxCell>
        <mxCell id="LFRIddNNgQjtAJyHvqCD-29" value="" style="endArrow=none;html=1;rounded=0;exitX=0.5;exitY=0;exitDx=0;exitDy=0;entryX=0.5;entryY=1;entryDx=0;entryDy=0;" edge="1" parent="WIyWlLk6GJQsqaUBKTNV-1" source="jJb1c6qj5qtRXKOhrBhQ-174" target="jJb1c6qj5qtRXKOhrBhQ-149">
          <mxGeometry width="50" height="50" relative="1" as="geometry">
            <mxPoint x="963" y="1180" as="sourcePoint" />
            <mxPoint x="1083" y="1070" as="targetPoint" />
          </mxGeometry>
        </mxCell>
        <mxCell id="LFRIddNNgQjtAJyHvqCD-28" value="" style="endArrow=none;html=1;rounded=0;entryX=0.123;entryY=0.998;entryDx=0;entryDy=0;entryPerimeter=0;exitX=1;exitY=0.5;exitDx=0;exitDy=0;" edge="1" parent="WIyWlLk6GJQsqaUBKTNV-1" source="jJb1c6qj5qtRXKOhrBhQ-173" target="jJb1c6qj5qtRXKOhrBhQ-149">
          <mxGeometry width="50" height="50" relative="1" as="geometry">
            <mxPoint x="963" y="1180" as="sourcePoint" />
            <mxPoint x="1013" y="1130" as="targetPoint" />
          </mxGeometry>
        </mxCell>
        <mxCell id="LFRIddNNgQjtAJyHvqCD-30" value="" style="endArrow=none;html=1;rounded=0;entryX=1;entryY=0.5;entryDx=0;entryDy=0;exitX=0;exitY=0.5;exitDx=0;exitDy=0;" edge="1" parent="WIyWlLk6GJQsqaUBKTNV-1" source="jJb1c6qj5qtRXKOhrBhQ-134" target="jJb1c6qj5qtRXKOhrBhQ-154">
          <mxGeometry width="50" height="50" relative="1" as="geometry">
            <mxPoint x="963" y="1180" as="sourcePoint" />
            <mxPoint x="1013" y="1130" as="targetPoint" />
          </mxGeometry>
        </mxCell>
        <mxCell id="LFRIddNNgQjtAJyHvqCD-31" value="" style="endArrow=none;html=1;rounded=0;exitX=1;exitY=0;exitDx=0;exitDy=0;" edge="1" parent="WIyWlLk6GJQsqaUBKTNV-1" source="XKyIKOg5m7HANeNzWdwx-1">
          <mxGeometry width="50" height="50" relative="1" as="geometry">
            <mxPoint x="-55" y="1600" as="sourcePoint" />
            <mxPoint x="-5" y="1524" as="targetPoint" />
          </mxGeometry>
        </mxCell>
        <mxCell id="XKyIKOg5m7HANeNzWdwx-14" value="&lt;div style=&quot;text-align: left;&quot;&gt;&lt;font face=&quot;Arial&quot;&gt;&lt;span style=&quot;font-size: 13px; white-space-collapse: preserve; background-color: rgb(255, 255, 255);&quot;&gt;dimension&lt;/span&gt;&lt;/font&gt;&lt;/div&gt;" style="ellipse;whiteSpace=wrap;html=1;rounded=0;" vertex="1" parent="WIyWlLk6GJQsqaUBKTNV-1">
          <mxGeometry x="1086" y="285.5" width="70" height="40" as="geometry" />
        </mxCell>
        <mxCell id="XKyIKOg5m7HANeNzWdwx-15" value="&lt;div style=&quot;text-align: left;&quot;&gt;&lt;font face=&quot;Arial&quot;&gt;&lt;span style=&quot;font-size: 13px; white-space-collapse: preserve; background-color: rgb(255, 255, 255);&quot;&gt;weigth&lt;/span&gt;&lt;/font&gt;&lt;/div&gt;" style="ellipse;whiteSpace=wrap;html=1;rounded=0;" vertex="1" parent="WIyWlLk6GJQsqaUBKTNV-1">
          <mxGeometry x="1101.5" y="230" width="70" height="40" as="geometry" />
        </mxCell>
        <mxCell id="XKyIKOg5m7HANeNzWdwx-18" value="" style="endArrow=none;html=1;rounded=0;entryX=0;entryY=0.5;entryDx=0;entryDy=0;exitX=1;exitY=0.5;exitDx=0;exitDy=0;" edge="1" parent="WIyWlLk6GJQsqaUBKTNV-1" source="jJb1c6qj5qtRXKOhrBhQ-75" target="XKyIKOg5m7HANeNzWdwx-15">
          <mxGeometry width="50" height="50" relative="1" as="geometry">
            <mxPoint x="964" y="198" as="sourcePoint" />
            <mxPoint x="1055" y="198" as="targetPoint" />
          </mxGeometry>
        </mxCell>
        <mxCell id="XKyIKOg5m7HANeNzWdwx-19" value="" style="endArrow=none;html=1;rounded=0;entryX=0;entryY=0;entryDx=0;entryDy=0;exitX=1;exitY=1;exitDx=0;exitDy=0;" edge="1" parent="WIyWlLk6GJQsqaUBKTNV-1" source="jJb1c6qj5qtRXKOhrBhQ-75" target="XKyIKOg5m7HANeNzWdwx-14">
          <mxGeometry width="50" height="50" relative="1" as="geometry">
            <mxPoint x="974" y="208" as="sourcePoint" />
            <mxPoint x="1065" y="208" as="targetPoint" />
          </mxGeometry>
        </mxCell>
        <mxCell id="LFRIddNNgQjtAJyHvqCD-32" value="status" style="ellipse;whiteSpace=wrap;html=1;rounded=0;" vertex="1" parent="WIyWlLk6GJQsqaUBKTNV-1">
          <mxGeometry x="81" y="721" width="91" height="50" as="geometry" />
        </mxCell>
        <mxCell id="LFRIddNNgQjtAJyHvqCD-34" value="&lt;span style=&quot;font-family: Arial; font-size: 13px; text-align: left; white-space-collapse: preserve; background-color: rgb(255, 255, 255);&quot;&gt;Sub_cat_id&lt;/span&gt;" style="ellipse;whiteSpace=wrap;html=1;rounded=0;" vertex="1" parent="WIyWlLk6GJQsqaUBKTNV-1">
          <mxGeometry x="1090" y="178" width="97" height="40" as="geometry" />
        </mxCell>
        <mxCell id="LFRIddNNgQjtAJyHvqCD-35" value="" style="endArrow=none;html=1;rounded=0;entryX=0;entryY=0.5;entryDx=0;entryDy=0;exitX=1;exitY=0.25;exitDx=0;exitDy=0;" edge="1" parent="WIyWlLk6GJQsqaUBKTNV-1" source="jJb1c6qj5qtRXKOhrBhQ-75" target="LFRIddNNgQjtAJyHvqCD-34">
          <mxGeometry width="50" height="50" relative="1" as="geometry">
            <mxPoint x="954" y="188" as="sourcePoint" />
            <mxPoint x="1045" y="188" as="targetPoint" />
          </mxGeometry>
        </mxCell>
        <mxCell id="LFRIddNNgQjtAJyHvqCD-36" value="&lt;div style=&quot;text-align: left;&quot;&gt;&lt;font face=&quot;Arial&quot;&gt;&lt;span style=&quot;font-size: 13px; white-space-collapse: preserve; background-color: rgb(255, 255, 255);&quot;&gt;amount&lt;/span&gt;&lt;/font&gt;&lt;/div&gt;" style="ellipse;whiteSpace=wrap;html=1;rounded=0;" vertex="1" parent="WIyWlLk6GJQsqaUBKTNV-1">
          <mxGeometry x="985" y="360" width="78" height="40" as="geometry" />
        </mxCell>
        <mxCell id="LFRIddNNgQjtAJyHvqCD-37" value="" style="endArrow=none;html=1;rounded=0;entryX=0.321;entryY=0.052;entryDx=0;entryDy=0;exitX=0.648;exitY=0.986;exitDx=0;exitDy=0;entryPerimeter=0;exitPerimeter=0;" edge="1" parent="WIyWlLk6GJQsqaUBKTNV-1" source="jJb1c6qj5qtRXKOhrBhQ-75" target="LFRIddNNgQjtAJyHvqCD-36">
          <mxGeometry width="50" height="50" relative="1" as="geometry">
            <mxPoint x="926" y="248.5" as="sourcePoint" />
            <mxPoint x="956" y="375.5" as="targetPoint" />
          </mxGeometry>
        </mxCell>
        <mxCell id="LFRIddNNgQjtAJyHvqCD-39" value="&lt;div style=&quot;text-align: left;&quot;&gt;&lt;span style=&quot;font-family: Arial; font-size: 13px; white-space-collapse: preserve; background-color: rgb(255, 255, 255);&quot;&gt;psub_id&lt;/span&gt;&lt;br&gt;&lt;/div&gt;" style="ellipse;whiteSpace=wrap;html=1;rounded=0;" vertex="1" parent="WIyWlLk6GJQsqaUBKTNV-1">
          <mxGeometry x="-207" y="1604" width="78" height="40" as="geometry" />
        </mxCell>
        <mxCell id="LFRIddNNgQjtAJyHvqCD-40" value="&lt;div style=&quot;text-align: left;&quot;&gt;&lt;span style=&quot;background-color: initial; font-size: 13.3333px;&quot;&gt;&lt;font face=&quot;Arial&quot;&gt;product_img&lt;/font&gt;&lt;/span&gt;&lt;/div&gt;" style="ellipse;whiteSpace=wrap;html=1;rounded=0;" vertex="1" parent="WIyWlLk6GJQsqaUBKTNV-1">
          <mxGeometry x="-115" y="1610" width="100" height="40" as="geometry" />
        </mxCell>
        <mxCell id="LFRIddNNgQjtAJyHvqCD-41" value="" style="endArrow=none;html=1;rounded=0;entryX=0;entryY=1;entryDx=0;entryDy=0;exitX=0.706;exitY=0.153;exitDx=0;exitDy=0;exitPerimeter=0;" edge="1" parent="WIyWlLk6GJQsqaUBKTNV-1" source="LFRIddNNgQjtAJyHvqCD-39" target="jJb1c6qj5qtRXKOhrBhQ-47">
          <mxGeometry width="50" height="50" relative="1" as="geometry">
            <mxPoint x="215" y="1344" as="sourcePoint" />
            <mxPoint x="265" y="1294" as="targetPoint" />
          </mxGeometry>
        </mxCell>
        <mxCell id="LFRIddNNgQjtAJyHvqCD-42" value="" style="endArrow=none;html=1;rounded=0;entryX=0.109;entryY=1.038;entryDx=0;entryDy=0;entryPerimeter=0;" edge="1" parent="WIyWlLk6GJQsqaUBKTNV-1" source="LFRIddNNgQjtAJyHvqCD-40" target="jJb1c6qj5qtRXKOhrBhQ-47">
          <mxGeometry width="50" height="50" relative="1" as="geometry">
            <mxPoint x="-142" y="1620" as="sourcePoint" />
            <mxPoint x="5" y="1540" as="targetPoint" />
          </mxGeometry>
        </mxCell>
        <mxCell id="LFRIddNNgQjtAJyHvqCD-43" value="&lt;div style=&quot;text-align: left;&quot;&gt;&lt;font face=&quot;Arial&quot;&gt;&lt;span style=&quot;font-size: 13px; white-space-collapse: preserve; background-color: rgb(255, 255, 255);&quot;&gt;payment&lt;/span&gt;&lt;/font&gt;&lt;/div&gt;&lt;div style=&quot;text-align: left;&quot;&gt;&lt;font face=&quot;Arial&quot;&gt;&lt;span style=&quot;font-size: 13px; white-space-collapse: preserve; background-color: rgb(255, 255, 255);&quot;&gt;status&lt;/span&gt;&lt;/font&gt;&lt;/div&gt;" style="ellipse;whiteSpace=wrap;html=1;rounded=0;" vertex="1" parent="WIyWlLk6GJQsqaUBKTNV-1">
          <mxGeometry x="1103" y="614" width="75" height="40" as="geometry" />
        </mxCell>
        <mxCell id="LFRIddNNgQjtAJyHvqCD-44" value="&lt;div style=&quot;text-align: left;&quot;&gt;&lt;font face=&quot;Arial&quot;&gt;&lt;span style=&quot;font-size: 13px; white-space-collapse: preserve; background-color: rgb(255, 255, 255);&quot;&gt;order&lt;/span&gt;&lt;/font&gt;&lt;/div&gt;&lt;div style=&quot;text-align: left;&quot;&gt;&lt;font face=&quot;Arial&quot;&gt;&lt;span style=&quot;font-size: 13px; white-space-collapse: preserve; background-color: rgb(255, 255, 255);&quot;&gt;status&lt;/span&gt;&lt;/font&gt;&lt;/div&gt;" style="ellipse;whiteSpace=wrap;html=1;rounded=0;" vertex="1" parent="WIyWlLk6GJQsqaUBKTNV-1">
          <mxGeometry x="1144.5" y="654" width="70" height="40" as="geometry" />
        </mxCell>
        <mxCell id="LFRIddNNgQjtAJyHvqCD-51" value="" style="endArrow=none;html=1;rounded=0;exitX=0.874;exitY=-0.022;exitDx=0;exitDy=0;entryX=0;entryY=1;entryDx=0;entryDy=0;exitPerimeter=0;" edge="1" parent="WIyWlLk6GJQsqaUBKTNV-1" target="LFRIddNNgQjtAJyHvqCD-44">
          <mxGeometry width="50" height="50" relative="1" as="geometry">
            <mxPoint x="1093.38" y="769.6799999999998" as="sourcePoint" />
            <mxPoint x="1181.5" y="740" as="targetPoint" />
          </mxGeometry>
        </mxCell>
        <mxCell id="LFRIddNNgQjtAJyHvqCD-52" value="" style="endArrow=none;html=1;rounded=0;entryX=0;entryY=1;entryDx=0;entryDy=0;exitX=0.669;exitY=-0.022;exitDx=0;exitDy=0;exitPerimeter=0;" edge="1" parent="WIyWlLk6GJQsqaUBKTNV-1" source="jJb1c6qj5qtRXKOhrBhQ-118" target="LFRIddNNgQjtAJyHvqCD-43">
          <mxGeometry width="50" height="50" relative="1" as="geometry">
            <mxPoint x="893" y="870" as="sourcePoint" />
            <mxPoint x="943" y="820" as="targetPoint" />
          </mxGeometry>
        </mxCell>
        <mxCell id="LFRIddNNgQjtAJyHvqCD-53" value="&lt;div style=&quot;text-align: left;&quot;&gt;&lt;font face=&quot;Arial&quot;&gt;&lt;span style=&quot;font-size: 13px; white-space-collapse: preserve; background-color: rgb(255, 255, 255);&quot;&gt;payment&lt;/span&gt;&lt;/font&gt;&lt;/div&gt;&lt;div style=&quot;text-align: left;&quot;&gt;&lt;font face=&quot;Arial&quot;&gt;&lt;span style=&quot;font-size: 13px; white-space-collapse: preserve; background-color: rgb(255, 255, 255);&quot;&gt;status&lt;/span&gt;&lt;/font&gt;&lt;/div&gt;" style="ellipse;whiteSpace=wrap;html=1;rounded=0;" vertex="1" parent="WIyWlLk6GJQsqaUBKTNV-1">
          <mxGeometry x="1224.5" y="1071" width="75" height="40" as="geometry" />
        </mxCell>
        <mxCell id="LFRIddNNgQjtAJyHvqCD-54" value="&lt;div style=&quot;text-align: left;&quot;&gt;&lt;font face=&quot;Arial&quot;&gt;&lt;span style=&quot;font-size: 13px; white-space-collapse: preserve; background-color: rgb(255, 255, 255);&quot;&gt;order&lt;/span&gt;&lt;/font&gt;&lt;/div&gt;&lt;div style=&quot;text-align: left;&quot;&gt;&lt;font face=&quot;Arial&quot;&gt;&lt;span style=&quot;font-size: 13px; white-space-collapse: preserve; background-color: rgb(255, 255, 255);&quot;&gt;status&lt;/span&gt;&lt;/font&gt;&lt;/div&gt;" style="ellipse;whiteSpace=wrap;html=1;rounded=0;" vertex="1" parent="WIyWlLk6GJQsqaUBKTNV-1">
          <mxGeometry x="1203" y="1129" width="70" height="40" as="geometry" />
        </mxCell>
        <mxCell id="LFRIddNNgQjtAJyHvqCD-55" value="&lt;div style=&quot;text-align: left;&quot;&gt;&lt;font face=&quot;Arial&quot;&gt;&lt;span style=&quot;font-size: 13px; white-space-collapse: preserve; background-color: rgb(255, 255, 255);&quot;&gt;amount&lt;/span&gt;&lt;/font&gt;&lt;/div&gt;" style="ellipse;whiteSpace=wrap;html=1;rounded=0;" vertex="1" parent="WIyWlLk6GJQsqaUBKTNV-1">
          <mxGeometry x="1124" y="1163" width="70" height="40" as="geometry" />
        </mxCell>
        <mxCell id="LFRIddNNgQjtAJyHvqCD-56" value="" style="endArrow=none;html=1;rounded=0;entryX=0;entryY=0;entryDx=0;entryDy=0;exitX=0.659;exitY=0.983;exitDx=0;exitDy=0;exitPerimeter=0;" edge="1" parent="WIyWlLk6GJQsqaUBKTNV-1" source="jJb1c6qj5qtRXKOhrBhQ-149" target="LFRIddNNgQjtAJyHvqCD-55">
          <mxGeometry width="50" height="50" relative="1" as="geometry">
            <mxPoint x="1083" y="1080" as="sourcePoint" />
            <mxPoint x="937.5" y="960" as="targetPoint" />
          </mxGeometry>
        </mxCell>
        <mxCell id="LFRIddNNgQjtAJyHvqCD-57" value="" style="endArrow=none;html=1;rounded=0;entryX=0;entryY=0.5;entryDx=0;entryDy=0;exitX=0.864;exitY=1.024;exitDx=0;exitDy=0;exitPerimeter=0;" edge="1" parent="WIyWlLk6GJQsqaUBKTNV-1" source="jJb1c6qj5qtRXKOhrBhQ-149" target="LFRIddNNgQjtAJyHvqCD-54">
          <mxGeometry width="50" height="50" relative="1" as="geometry">
            <mxPoint x="1133" y="1120" as="sourcePoint" />
            <mxPoint x="1191.5" y="750" as="targetPoint" />
          </mxGeometry>
        </mxCell>
        <mxCell id="LFRIddNNgQjtAJyHvqCD-58" value="" style="endArrow=none;html=1;rounded=0;entryX=0;entryY=0.5;entryDx=0;entryDy=0;exitX=1;exitY=1;exitDx=0;exitDy=0;" edge="1" parent="WIyWlLk6GJQsqaUBKTNV-1" source="jJb1c6qj5qtRXKOhrBhQ-149" target="LFRIddNNgQjtAJyHvqCD-53">
          <mxGeometry width="50" height="50" relative="1" as="geometry">
            <mxPoint x="1143" y="1130" as="sourcePoint" />
            <mxPoint x="1235" y="1159" as="targetPoint" />
          </mxGeometry>
        </mxCell>
        <mxCell id="SzT_wWwQKgAQfBorcGmF-0" value="" style="endArrow=none;html=1;rounded=0;" edge="1" parent="WIyWlLk6GJQsqaUBKTNV-1">
          <mxGeometry width="50" height="50" relative="1" as="geometry">
            <mxPoint x="303" y="880" as="sourcePoint" />
            <mxPoint x="763" y="880" as="targetPoint" />
          </mxGeometry>
        </mxCell>
        <mxCell id="SzT_wWwQKgAQfBorcGmF-1" value="" style="endArrow=none;html=1;rounded=0;entryX=0;entryY=0.5;entryDx=0;entryDy=0;" edge="1" parent="WIyWlLk6GJQsqaUBKTNV-1" target="jJb1c6qj5qtRXKOhrBhQ-114">
          <mxGeometry width="50" height="50" relative="1" as="geometry">
            <mxPoint x="763" y="880" as="sourcePoint" />
            <mxPoint x="773" y="840" as="targetPoint" />
            <Array as="points">
              <mxPoint x="763" y="801" />
            </Array>
          </mxGeometry>
        </mxCell>
        <mxCell id="SzT_wWwQKgAQfBorcGmF-2" value="" style="endArrow=none;html=1;rounded=0;entryX=0;entryY=0.5;entryDx=0;entryDy=0;" edge="1" parent="WIyWlLk6GJQsqaUBKTNV-1" target="jJb1c6qj5qtRXKOhrBhQ-148">
          <mxGeometry width="50" height="50" relative="1" as="geometry">
            <mxPoint x="763" y="880" as="sourcePoint" />
            <mxPoint x="773" y="840" as="targetPoint" />
            <Array as="points">
              <mxPoint x="763" y="1040" />
            </Array>
          </mxGeometry>
        </mxCell>
        <mxCell id="SzT_wWwQKgAQfBorcGmF-3" value="address" style="ellipse;whiteSpace=wrap;html=1;rounded=0;" vertex="1" parent="WIyWlLk6GJQsqaUBKTNV-1">
          <mxGeometry x="172" y="599" width="91" height="50" as="geometry" />
        </mxCell>
        <mxCell id="P32zGIdbcSKPLFvf0-k8-1" value="" style="endArrow=none;html=1;rounded=0;entryX=0.5;entryY=1;entryDx=0;entryDy=0;exitX=1;exitY=0.083;exitDx=0;exitDy=0;exitPerimeter=0;" edge="1" parent="WIyWlLk6GJQsqaUBKTNV-1" source="UwYnIVmGFYntGTS2J9TL-1" target="jJb1c6qj5qtRXKOhrBhQ-19">
          <mxGeometry width="50" height="50" relative="1" as="geometry">
            <mxPoint x="133" y="530" as="sourcePoint" />
            <mxPoint x="133" y="520" as="targetPoint" />
          </mxGeometry>
        </mxCell>
        <mxCell id="P32zGIdbcSKPLFvf0-k8-2" value="" style="endArrow=none;html=1;rounded=0;entryX=0.357;entryY=0.95;entryDx=0;entryDy=0;exitX=0.75;exitY=0;exitDx=0;exitDy=0;entryPerimeter=0;" edge="1" parent="WIyWlLk6GJQsqaUBKTNV-1" source="UwYnIVmGFYntGTS2J9TL-1" target="jJb1c6qj5qtRXKOhrBhQ-17">
          <mxGeometry width="50" height="50" relative="1" as="geometry">
            <mxPoint x="83" y="570" as="sourcePoint" />
            <mxPoint x="133" y="520" as="targetPoint" />
          </mxGeometry>
        </mxCell>
        <mxCell id="P32zGIdbcSKPLFvf0-k8-3" value="" style="endArrow=none;html=1;rounded=0;exitX=0.576;exitY=0.025;exitDx=0;exitDy=0;exitPerimeter=0;" edge="1" parent="WIyWlLk6GJQsqaUBKTNV-1" source="UwYnIVmGFYntGTS2J9TL-1" target="jJb1c6qj5qtRXKOhrBhQ-15">
          <mxGeometry width="50" height="50" relative="1" as="geometry">
            <mxPoint x="83" y="520" as="sourcePoint" />
            <mxPoint x="133" y="520" as="targetPoint" />
          </mxGeometry>
        </mxCell>
        <mxCell id="P32zGIdbcSKPLFvf0-k8-4" value="" style="endArrow=none;html=1;rounded=0;entryX=0.557;entryY=1;entryDx=0;entryDy=0;entryPerimeter=0;exitX=0.432;exitY=0.025;exitDx=0;exitDy=0;exitPerimeter=0;" edge="1" parent="WIyWlLk6GJQsqaUBKTNV-1" source="UwYnIVmGFYntGTS2J9TL-1" target="jJb1c6qj5qtRXKOhrBhQ-13">
          <mxGeometry width="50" height="50" relative="1" as="geometry">
            <mxPoint x="83" y="510" as="sourcePoint" />
            <mxPoint x="133" y="460" as="targetPoint" />
          </mxGeometry>
        </mxCell>
        <mxCell id="P32zGIdbcSKPLFvf0-k8-5" value="" style="endArrow=none;html=1;rounded=0;entryX=1;entryY=1;entryDx=0;entryDy=0;exitX=0.25;exitY=0;exitDx=0;exitDy=0;" edge="1" parent="WIyWlLk6GJQsqaUBKTNV-1" source="UwYnIVmGFYntGTS2J9TL-1" target="jJb1c6qj5qtRXKOhrBhQ-12">
          <mxGeometry width="50" height="50" relative="1" as="geometry">
            <mxPoint x="83" y="510" as="sourcePoint" />
            <mxPoint x="133" y="460" as="targetPoint" />
          </mxGeometry>
        </mxCell>
        <mxCell id="P32zGIdbcSKPLFvf0-k8-6" value="" style="endArrow=none;html=1;rounded=0;entryX=0;entryY=0;entryDx=0;entryDy=0;" edge="1" parent="WIyWlLk6GJQsqaUBKTNV-1" source="jJb1c6qj5qtRXKOhrBhQ-0" target="UwYnIVmGFYntGTS2J9TL-1">
          <mxGeometry width="50" height="50" relative="1" as="geometry">
            <mxPoint x="83" y="510" as="sourcePoint" />
            <mxPoint x="133" y="460" as="targetPoint" />
          </mxGeometry>
        </mxCell>
        <mxCell id="P32zGIdbcSKPLFvf0-k8-7" value="" style="endArrow=none;html=1;rounded=0;exitX=1;exitY=0.5;exitDx=0;exitDy=0;entryX=0;entryY=1;entryDx=0;entryDy=0;" edge="1" parent="WIyWlLk6GJQsqaUBKTNV-1" source="jJb1c6qj5qtRXKOhrBhQ-16" target="UwYnIVmGFYntGTS2J9TL-1">
          <mxGeometry width="50" height="50" relative="1" as="geometry">
            <mxPoint x="83" y="670" as="sourcePoint" />
            <mxPoint x="133" y="620" as="targetPoint" />
          </mxGeometry>
        </mxCell>
        <mxCell id="P32zGIdbcSKPLFvf0-k8-8" value="" style="endArrow=none;html=1;rounded=0;exitX=1;exitY=0;exitDx=0;exitDy=0;entryX=0.214;entryY=0.979;entryDx=0;entryDy=0;entryPerimeter=0;" edge="1" parent="WIyWlLk6GJQsqaUBKTNV-1" source="jJb1c6qj5qtRXKOhrBhQ-1" target="UwYnIVmGFYntGTS2J9TL-1">
          <mxGeometry width="50" height="50" relative="1" as="geometry">
            <mxPoint x="83" y="670" as="sourcePoint" />
            <mxPoint x="133" y="620" as="targetPoint" />
          </mxGeometry>
        </mxCell>
        <mxCell id="P32zGIdbcSKPLFvf0-k8-9" value="" style="endArrow=none;html=1;rounded=0;entryX=0.386;entryY=0.991;entryDx=0;entryDy=0;entryPerimeter=0;" edge="1" parent="WIyWlLk6GJQsqaUBKTNV-1" target="UwYnIVmGFYntGTS2J9TL-1">
          <mxGeometry width="50" height="50" relative="1" as="geometry">
            <mxPoint x="-7" y="720" as="sourcePoint" />
            <mxPoint x="133" y="620" as="targetPoint" />
          </mxGeometry>
        </mxCell>
        <mxCell id="P32zGIdbcSKPLFvf0-k8-10" value="" style="endArrow=none;html=1;rounded=0;exitX=0.352;exitY=-0.02;exitDx=0;exitDy=0;exitPerimeter=0;entryX=0.5;entryY=1;entryDx=0;entryDy=0;" edge="1" parent="WIyWlLk6GJQsqaUBKTNV-1" source="LFRIddNNgQjtAJyHvqCD-32" target="UwYnIVmGFYntGTS2J9TL-1">
          <mxGeometry width="50" height="50" relative="1" as="geometry">
            <mxPoint x="83" y="670" as="sourcePoint" />
            <mxPoint x="133" y="620" as="targetPoint" />
          </mxGeometry>
        </mxCell>
        <mxCell id="P32zGIdbcSKPLFvf0-k8-11" value="" style="endArrow=none;html=1;rounded=0;entryX=0;entryY=0;entryDx=0;entryDy=0;exitX=0.75;exitY=1;exitDx=0;exitDy=0;" edge="1" parent="WIyWlLk6GJQsqaUBKTNV-1" source="UwYnIVmGFYntGTS2J9TL-1" target="jJb1c6qj5qtRXKOhrBhQ-3">
          <mxGeometry width="50" height="50" relative="1" as="geometry">
            <mxPoint x="83" y="670" as="sourcePoint" />
            <mxPoint x="133" y="620" as="targetPoint" />
          </mxGeometry>
        </mxCell>
        <mxCell id="P32zGIdbcSKPLFvf0-k8-12" value="" style="endArrow=none;html=1;rounded=0;exitX=1;exitY=1;exitDx=0;exitDy=0;" edge="1" parent="WIyWlLk6GJQsqaUBKTNV-1" source="UwYnIVmGFYntGTS2J9TL-1" target="SzT_wWwQKgAQfBorcGmF-3">
          <mxGeometry width="50" height="50" relative="1" as="geometry">
            <mxPoint x="83" y="670" as="sourcePoint" />
            <mxPoint x="133" y="620" as="targetPoint" />
          </mxGeometry>
        </mxCell>
        <mxCell id="B5z6JujvI_pp0zHjddGs-3" value="city" style="rounded=0;whiteSpace=wrap;html=1;" vertex="1" parent="WIyWlLk6GJQsqaUBKTNV-1">
          <mxGeometry x="-160" y="1010" width="120" height="60" as="geometry" />
        </mxCell>
        <mxCell id="B5z6JujvI_pp0zHjddGs-4" value="&lt;div style=&quot;text-align: left;&quot;&gt;&lt;font face=&quot;Arial&quot;&gt;&lt;span style=&quot;font-size: 13.3333px;&quot;&gt;city_id&lt;/span&gt;&lt;/font&gt;&lt;/div&gt;" style="ellipse;whiteSpace=wrap;html=1;rounded=0;" vertex="1" parent="WIyWlLk6GJQsqaUBKTNV-1">
          <mxGeometry x="-139" y="947" width="78" height="40" as="geometry" />
        </mxCell>
        <mxCell id="B5z6JujvI_pp0zHjddGs-7" value="&lt;div style=&quot;text-align: left;&quot;&gt;&lt;font face=&quot;Arial&quot;&gt;&lt;span style=&quot;font-size: 13px; white-space-collapse: preserve; background-color: rgb(255, 255, 255);&quot;&gt;city_name&lt;/span&gt;&lt;/font&gt;&lt;/div&gt;" style="ellipse;whiteSpace=wrap;html=1;rounded=0;" vertex="1" parent="WIyWlLk6GJQsqaUBKTNV-1">
          <mxGeometry x="-137.5" y="1101" width="75" height="40" as="geometry" />
        </mxCell>
        <mxCell id="B5z6JujvI_pp0zHjddGs-8" value="" style="endArrow=none;html=1;rounded=0;entryX=0.5;entryY=0;entryDx=0;entryDy=0;exitX=0.5;exitY=1;exitDx=0;exitDy=0;" edge="1" parent="WIyWlLk6GJQsqaUBKTNV-1" source="B5z6JujvI_pp0zHjddGs-3" target="B5z6JujvI_pp0zHjddGs-7">
          <mxGeometry width="50" height="50" relative="1" as="geometry">
            <mxPoint x="-179" y="1030" as="sourcePoint" />
            <mxPoint x="-129" y="980" as="targetPoint" />
          </mxGeometry>
        </mxCell>
        <mxCell id="B5z6JujvI_pp0zHjddGs-9" value="" style="endArrow=none;html=1;rounded=0;entryX=0.5;entryY=1;entryDx=0;entryDy=0;exitX=0.5;exitY=0;exitDx=0;exitDy=0;" edge="1" parent="WIyWlLk6GJQsqaUBKTNV-1" source="B5z6JujvI_pp0zHjddGs-3" target="B5z6JujvI_pp0zHjddGs-4">
          <mxGeometry width="50" height="50" relative="1" as="geometry">
            <mxPoint x="-179" y="1030" as="sourcePoint" />
            <mxPoint x="-129" y="980" as="targetPoint" />
          </mxGeometry>
        </mxCell>
        <mxCell id="B5z6JujvI_pp0zHjddGs-13" value="" style="endArrow=none;html=1;rounded=0;exitX=1;exitY=0.5;exitDx=0;exitDy=0;entryX=0;entryY=0.5;entryDx=0;entryDy=0;" edge="1" parent="WIyWlLk6GJQsqaUBKTNV-1" source="B5z6JujvI_pp0zHjddGs-3" target="B5z6JujvI_pp0zHjddGs-14">
          <mxGeometry width="50" height="50" relative="1" as="geometry">
            <mxPoint x="-90" y="1080" as="sourcePoint" />
            <mxPoint x="67" y="1040" as="targetPoint" />
          </mxGeometry>
        </mxCell>
        <mxCell id="B5z6JujvI_pp0zHjddGs-14" value="area" style="rounded=0;whiteSpace=wrap;html=1;" vertex="1" parent="WIyWlLk6GJQsqaUBKTNV-1">
          <mxGeometry x="35" y="1010" width="120" height="60" as="geometry" />
        </mxCell>
        <mxCell id="B5z6JujvI_pp0zHjddGs-15" value="&lt;div style=&quot;text-align: left;&quot;&gt;&lt;font face=&quot;Arial&quot;&gt;&lt;span style=&quot;font-size: 13.3333px;&quot;&gt;area_id&lt;/span&gt;&lt;/font&gt;&lt;/div&gt;" style="ellipse;whiteSpace=wrap;html=1;rounded=0;" vertex="1" parent="WIyWlLk6GJQsqaUBKTNV-1">
          <mxGeometry x="56" y="941" width="78" height="40" as="geometry" />
        </mxCell>
        <mxCell id="B5z6JujvI_pp0zHjddGs-16" value="&lt;div style=&quot;text-align: left;&quot;&gt;&lt;font face=&quot;Arial&quot;&gt;&lt;span style=&quot;font-size: 13.3333px;&quot;&gt;area_name&lt;/span&gt;&lt;/font&gt;&lt;/div&gt;" style="ellipse;whiteSpace=wrap;html=1;rounded=0;" vertex="1" parent="WIyWlLk6GJQsqaUBKTNV-1">
          <mxGeometry x="149" y="941" width="78" height="40" as="geometry" />
        </mxCell>
        <mxCell id="B5z6JujvI_pp0zHjddGs-17" value="&lt;div style=&quot;text-align: left;&quot;&gt;&lt;font face=&quot;Arial&quot;&gt;&lt;span style=&quot;font-size: 13.3333px;&quot;&gt;pincode&lt;/span&gt;&lt;/font&gt;&lt;/div&gt;" style="ellipse;whiteSpace=wrap;html=1;rounded=0;" vertex="1" parent="WIyWlLk6GJQsqaUBKTNV-1">
          <mxGeometry x="62" y="1091" width="78" height="40" as="geometry" />
        </mxCell>
        <mxCell id="B5z6JujvI_pp0zHjddGs-18" value="&lt;div style=&quot;text-align: left;&quot;&gt;&lt;font face=&quot;Arial&quot;&gt;&lt;span style=&quot;font-size: 13.3333px;&quot;&gt;city_id&lt;/span&gt;&lt;/font&gt;&lt;/div&gt;" style="ellipse;whiteSpace=wrap;html=1;rounded=0;" vertex="1" parent="WIyWlLk6GJQsqaUBKTNV-1">
          <mxGeometry x="149" y="1091" width="78" height="40" as="geometry" />
        </mxCell>
        <mxCell id="B5z6JujvI_pp0zHjddGs-19" value="" style="endArrow=none;html=1;rounded=0;entryX=0.5;entryY=1;entryDx=0;entryDy=0;" edge="1" parent="WIyWlLk6GJQsqaUBKTNV-1" source="B5z6JujvI_pp0zHjddGs-14" target="B5z6JujvI_pp0zHjddGs-15">
          <mxGeometry width="50" height="50" relative="1" as="geometry">
            <mxPoint x="-90" y="1020" as="sourcePoint" />
            <mxPoint x="-90" y="997" as="targetPoint" />
          </mxGeometry>
        </mxCell>
        <mxCell id="B5z6JujvI_pp0zHjddGs-20" value="" style="endArrow=none;html=1;rounded=0;entryX=0.5;entryY=1;entryDx=0;entryDy=0;exitX=0.75;exitY=0;exitDx=0;exitDy=0;" edge="1" parent="WIyWlLk6GJQsqaUBKTNV-1" source="B5z6JujvI_pp0zHjddGs-14" target="B5z6JujvI_pp0zHjddGs-16">
          <mxGeometry width="50" height="50" relative="1" as="geometry">
            <mxPoint x="-80" y="1030" as="sourcePoint" />
            <mxPoint x="-80" y="1007" as="targetPoint" />
          </mxGeometry>
        </mxCell>
        <mxCell id="B5z6JujvI_pp0zHjddGs-21" value="" style="endArrow=none;html=1;rounded=0;entryX=0.5;entryY=0;entryDx=0;entryDy=0;exitX=0.5;exitY=1;exitDx=0;exitDy=0;" edge="1" parent="WIyWlLk6GJQsqaUBKTNV-1" source="B5z6JujvI_pp0zHjddGs-14" target="B5z6JujvI_pp0zHjddGs-17">
          <mxGeometry width="50" height="50" relative="1" as="geometry">
            <mxPoint x="-70" y="1040" as="sourcePoint" />
            <mxPoint x="-70" y="1017" as="targetPoint" />
          </mxGeometry>
        </mxCell>
        <mxCell id="B5z6JujvI_pp0zHjddGs-22" value="" style="endArrow=none;html=1;rounded=0;entryX=0.75;entryY=1;entryDx=0;entryDy=0;exitX=0.5;exitY=0;exitDx=0;exitDy=0;" edge="1" parent="WIyWlLk6GJQsqaUBKTNV-1" source="B5z6JujvI_pp0zHjddGs-18" target="B5z6JujvI_pp0zHjddGs-14">
          <mxGeometry width="50" height="50" relative="1" as="geometry">
            <mxPoint x="-60" y="1050" as="sourcePoint" />
            <mxPoint x="-60" y="1027" as="targetPoint" />
          </mxGeometry>
        </mxCell>
      </root>
    </mxGraphModel>
  </diagram>
</mxfile>
